<svg width="203" height="301" viewBox="0 0 203 301" fill="none" xmlns="http://www.w3.org/2000/svg">
<path fill-rule="evenodd" clip-rule="evenodd" d="M192.931 283.115C193.281 283.126 193.171 283.024 193.042 283C193.005 283.038 192.968 283.077 192.931 283.115ZM182.614 290.782C172.85 291.939 163.075 290.88 153.36 289.819C133.677 288.36 114.133 292.609 94.4117 291.314C69.7657 290.276 45.0528 288.326 20.4887 291.611C13.6943 291.767 2.85742 293.6 5.32146 283.087C8.55804 256.057 12.8853 229.163 17.5207 202.341C21.4492 187.304 21.7332 161.296 32.4905 150.839C34.0634 149.404 39.7044 144.76 41.1959 144.137C48.6105 141.377 61.9775 139.224 67.4922 133.375C71.9592 125.819 69.8813 115.51 76.8271 109.427C82.9147 104.459 96.2015 105.509 102.71 109.24C107.845 112.568 108.649 119.032 111.849 123.813C112.638 124.958 114.513 127.72 115.572 128.61C118.148 131.09 127.199 133.696 129.813 134.174C144.562 137.196 151.917 139.062 163.518 148.86C193.829 179.792 189.532 234.502 197.92 274.952C198.263 279.398 200.967 285.433 196.142 288.295C191.987 290.285 187.101 290.069 182.614 290.782Z" fill="#AE5D29"/>
<path fill-rule="evenodd" clip-rule="evenodd" d="M70.8736 123.091C70.8374 122.986 70.6682 122.968 70.6426 123.091C70.2289 124.983 69.4538 127.057 68.6682 128.83C67.8697 130.627 66.7785 132.277 65.3997 133.678C62.5113 136.614 58.7961 137.954 54.7215 137.956L54.6239 137.959C54.6051 137.822 54.584 137.685 54.5644 137.548L54.5366 137.343C54.1643 134.53 50.824 134.612 50.1719 136.735C49.8407 136.84 49.5095 136.945 49.1808 137.056L49.1151 137.079C48.5619 137.29 46.6879 138.223 46.3437 137.974C45.5863 137.43 44.7211 138.054 44.4335 138.749C43.9635 139.888 43.885 141.296 43.7324 142.531L43.712 142.691L43.6889 142.884C32.9696 145.669 26.9539 156.389 23.8832 166.265C22.2195 171.618 21.1308 177.142 20.0371 182.634C18.8663 188.509 17.7877 194.399 16.6454 200.276C14.3937 211.858 12.2627 223.467 10.4115 235.119L9.87477 238.502C8.17888 249.217 6.52702 259.925 5.13788 270.687C4.38817 276.49 3.68468 282.298 3.00685 288.111C2.88533 289.148 2.76494 290.185 2.64561 291.223L2.46742 292.78C2.30849 294.176 2.03891 295.557 2.72957 296.863C4.22641 299.696 8.76062 299.676 9.01738 296.047C9.06847 295.326 8.82481 294.774 8.42171 294.389L8.42729 294.328C8.43126 294.292 8.43532 294.265 8.43686 294.253C8.57063 293.532 8.60657 292.77 8.68872 292.04C8.86845 290.485 9.04305 288.93 9.2202 287.372C9.56168 284.405 9.90572 281.438 10.2626 278.474C10.9838 272.461 11.7466 266.455 12.5551 260.455L13.3566 254.522C16.0371 234.745 18.8308 214.973 22.507 195.353C23.5083 190.012 24.5377 184.679 25.5932 179.349C26.5945 174.3 27.7191 169.275 29.3982 164.402C32.1403 156.44 36.9338 148.985 43.5888 143.759C43.4861 144.758 43.4116 145.761 43.3167 146.759C43.0727 149.323 42.8134 151.885 42.5515 154.446C41.599 163.727 40.3075 172.992 38.1046 182.066C37.0134 186.563 35.6835 191.001 34.0634 195.335C33.2649 197.471 32.3945 199.578 31.4394 201.646C30.4945 203.692 28.8382 205.879 28.7384 208.158C28.6921 209.212 29.7962 210.149 30.8178 210.036C30.3405 214.235 30.0709 218.477 29.7859 222.666C29.37 228.733 29.0388 234.811 28.5535 240.873C27.6857 251.731 26.5971 262.575 25.4571 273.408C25.2311 275.556 24.9855 277.702 24.7425 279.847L24.539 281.649C24.402 282.817 24.1949 284.217 24.8152 285.252C24.2606 286.589 23.8806 287.963 23.6596 289.395C23.38 291.176 24.399 293.172 26.479 293.095C26.7152 293.088 26.9514 293.067 27.1876 293.042C29.1158 293.488 31.0388 293.881 33.0415 293.894C35.5987 293.912 38.1611 293.86 40.7183 293.842C45.6656 293.809 50.6135 293.776 55.5611 293.735C73.472 293.591 91.3906 293.599 109.299 293.311L116.464 293.197C123.033 293.092 129.602 292.97 136.168 292.731C140.689 292.567 145.21 292.4 149.729 292.218L150.649 292.183C154.637 292.037 158.629 291.963 162.572 291.353C162.671 291.336 162.714 291.234 162.698 291.143L162.693 291.119L162.865 291.081C162.965 291.512 165.045 289.7 165.029 288.496C165.892 287.375 165.489 285.583 165.396 284.285C165.306 283.019 165.193 281.752 165.093 280.486C164.88 277.784 164.698 275.079 164.48 272.376C163.599 261.479 162.839 250.553 162.346 239.633C162.097 234.128 161.897 228.62 161.686 223.115C161.591 220.609 161.459 218.1 161.213 215.605L161.15 214.982C160.88 212.451 160.906 209.731 159.974 207.346C159.961 207.313 159.917 207.313 159.904 207.346C158.962 209.667 158.872 212.364 158.682 214.91C158.649 214.9 158.615 214.895 158.58 214.887C157.278 214.268 155.963 213.711 154.731 212.947C154.564 212.844 154.402 212.736 154.238 212.631C152.299 206.702 150.053 200.871 147.986 194.981C141.308 175.935 137.621 155.652 136.805 135.485C141.898 138.768 147.446 141.321 152.839 144.064L153.344 144.321C158.657 147.037 163.743 150.119 167.525 154.829C170.821 158.93 172.976 163.927 174.991 168.744C177.155 173.921 179.107 179.19 180.891 184.507C184.511 195.297 187.315 206.351 189.503 217.518C191.662 228.538 193.205 239.64 194.237 250.82C194.763 256.523 195.243 262.231 195.647 267.946C195.852 270.839 196.034 273.734 196.204 276.631C196.286 278.038 196.347 279.447 196.44 280.853C196.496 281.664 196.507 282.501 196.774 283.271C196.997 283.912 197.392 284.449 197.762 285.016C198.437 286.05 200.142 286.238 200.776 285.016L201.051 284.487C201.415 283.782 201.746 283.073 201.796 282.26C201.842 281.49 201.747 280.687 201.703 279.914C201.619 278.351 201.521 276.785 201.423 275.222C201.218 271.935 200.99 268.647 200.733 265.362C200.222 258.782 199.565 252.219 198.738 245.669C195.829 222.666 191.628 199.783 183.613 177.953C181.631 172.555 179.42 167.201 176.924 162.02C174.511 157.01 171.458 152.28 167.027 148.831C162.947 145.655 158.206 143.529 153.494 141.466L152.905 141.208C147.624 138.901 142.353 136.417 136.838 134.702C136.961 134.718 137.082 134.733 137.187 134.769C137.308 134.807 137.379 134.651 137.305 134.566C136.992 134.22 136.861 133.863 136.501 133.522C136.253 133.285 135.995 133.062 135.729 132.847L135.346 132.543C134.647 131.988 133.911 131.421 133.03 131.227C131.785 130.955 131.174 132.087 131.523 132.972C131.343 132.739 130.861 132.808 130.735 133.129C126.637 143.693 123.946 154.875 118.431 164.856C114.359 172.229 108.896 179.038 101.645 183.491C97.7503 185.883 93.2928 187.721 88.6895 188.011C84.5559 188.27 80.5788 187.22 77.0636 185.051C70.2495 180.85 65.8 173.474 62.6268 166.326C59.1376 158.458 56.6471 150.073 55.1836 141.573C59.8205 141.637 64.7142 139.522 67.7978 136.075C69.4204 134.261 70.6297 132.051 71.2434 129.695C71.8621 127.318 71.6644 125.365 70.8736 123.091ZM109.774 116.919C109.209 115.91 107.956 115.577 106.931 115.987C105.794 116.444 105.453 117.548 105.614 118.669C105.802 119.983 106.647 121.403 107.304 122.55C107.992 123.751 108.878 124.857 109.794 125.891C111.52 127.842 113.366 129.6 115.556 131.037C117.736 132.467 120.201 133.537 122.734 134.135L123.337 134.275C125.308 134.726 128.112 135.242 129.754 134.171C129.834 134.119 129.831 134.014 129.754 133.963C128.866 133.344 127.677 133.234 126.655 132.942C125.541 132.621 124.424 132.256 123.359 131.799C121.256 130.896 119.243 129.705 117.451 128.283C115.651 126.857 113.91 125.155 112.706 123.191C112.1 122.206 111.584 121.172 111.089 120.13C110.588 119.085 110.336 117.925 109.774 116.919Z" fill="black"/>
<path fill-rule="evenodd" clip-rule="evenodd" d="M42.3656 70.2346C42.4677 64.479 42.5805 58.6084 43.4344 52.9088C44.2693 47.3367 46.566 42.3 50.5128 38.2537C58.8959 29.6589 71.0476 27.5596 82.3587 25.6358L101.698 22.3464C107.597 21.3431 113.892 19.7394 119.853 21.1623C122.79 21.8634 125.284 23.4923 127.564 25.4195C129.762 27.277 132.124 29.2717 133.613 31.7708C135.105 34.2735 135.618 37.1991 136.103 40.0296C136.65 43.2208 137.075 46.437 137.377 49.6608C137.982 56.1198 138.064 62.6274 137.625 69.0998C137.413 72.2391 137.075 75.3695 136.643 78.4859C136.429 80.0313 136.187 81.5728 135.913 83.109C135.833 83.5619 135.771 84.0634 135.689 84.5701C136.299 86.3084 136.646 88.1087 136.618 89.9012C136.535 95.1815 132.087 98.5058 127.603 100.291C125.003 101.326 122.285 102.029 119.73 103.185C117.042 104.401 115.213 106.372 113.376 108.621C109.871 112.91 105.916 116.765 101.401 119.981C91.8265 126.8 79.6999 130.025 68.0831 127.577C65.2959 126.99 62.484 126.078 59.9785 124.704C57.3333 123.253 55.3443 121.15 53.674 118.665C50.5726 114.05 48.3484 108.854 46.6658 103.566C44.9496 98.1723 43.7313 92.7687 43.0669 87.1444C42.4049 81.5384 42.2654 75.8753 42.3656 70.2346Z" fill="#AE5D29"/>
<path fill-rule="evenodd" clip-rule="evenodd" d="M104.136 2.31663C96.1435 1.21489 85.1123 4.79574 81.132 12.0159C62.1292 7.52635 38.1618 7.3793 22.4995 22.325C6.15666 40.054 26.6842 63.4297 40.2957 68.6999C39.3047 73.5265 40.8499 104.447 51.7833 118.24C60.4603 129.926 80.667 135.319 90.0173 121.361L90.0902 121.246C91.092 119.634 90.2292 119.686 89.2009 120.885C80.045 128.954 67.5961 129.092 58.003 120.576C40.024 105.011 41.8778 66.8465 50.433 44.7678C74.794 42.0865 100.877 49.4861 117.703 67.8636L116.565 74.7281C116.371 75.8976 116.151 77.066 115.983 78.2396C115.875 78.9916 115.863 79.7394 116.383 80.3481C118.1 82.3576 120.993 79.338 123.373 78.137C124.076 78.0379 124.78 77.9997 125.47 78.0484C136.906 79.5246 134.653 101.757 122.084 97.86C121.028 97.2007 120.12 97.4019 119.711 98.3586C116.715 101.109 114.739 106.014 109.762 110.738C108.006 112.51 106.408 113.992 104.432 115.414C103.272 116.59 99.7707 117.789 100.881 119.801C102.979 124.38 115.356 109.997 117.544 106.019C124.4 108.732 131.998 107.811 139.103 107.148C176.586 105.195 171.582 65.5982 140.858 40.599C135.075 36.3322 128.694 32.8515 122.062 30.1729C121.156 29.8072 121.552 28.3172 122.47 28.6881C126.859 30.4606 131.137 32.5704 135.215 35.0123L135.222 33.5524C135.228 31.0935 135.189 28.5336 134.763 26.287C134.55 24.7302 134.192 23.0675 133.64 21.8166C132.958 17.9817 122.276 4.81832 104.136 2.31663ZM125.97 83.1526C125.392 82.6016 124.311 83.2586 123.796 83.2421C122.478 83.4228 121.227 83.9805 120.25 84.6688C119.606 85.0306 119.154 85.3704 118.777 85.683L118.766 85.6802C118.769 85.6802 118.773 85.683 118.776 85.6838L118.74 85.7078C118.191 86.0992 116.179 88.3035 117.45 87.7107C117.545 87.5872 117.642 87.4687 117.74 87.3524C117.75 87.3683 117.765 87.384 117.782 87.3991L117.711 87.5053C116.63 89.134 118.496 87.4181 118.783 86.9623C118.796 86.9734 118.811 86.9808 118.827 86.9888L118.453 87.4446C118.401 87.5093 118.36 87.561 118.325 87.6047L118.247 87.6809C116.997 88.9114 116.958 90.0188 118.41 88.1996C118.353 88.2853 118.307 88.3761 118.3 88.4567L118.214 88.5666C117.075 90.0381 118.002 89.5155 118.568 88.887L118.615 88.833L118.606 88.8476C118.079 89.6609 119.124 89.0903 119.309 88.6553L119.316 88.6356C119.518 88.471 119.642 88.2864 119.684 88.2397L119.692 88.2319C120.672 87.2259 122.092 86.3746 123.298 85.9879C123.473 85.9545 123.65 85.9278 123.829 85.9088C124.554 85.7466 125.288 85.6355 126.029 85.5755C126.12 85.5647 126.211 85.498 126.28 85.4117C127.401 85.3739 127.055 84.9135 126.59 84.828L126.582 84.8266L126.674 84.8188C127.393 84.7485 127.884 84.4899 127.157 84.3312L127.065 84.3128C127.076 84.2951 127.086 84.2774 127.096 84.2597C127.719 84.1912 127.312 83.5845 126.967 83.7313C127.112 83.2547 126.447 83.4926 126.364 83.4218C126.301 83.3515 126.222 83.2894 126.177 83.286C125.977 83.1443 126.074 83.1572 125.97 83.1526ZM122.16 75.4366L122.306 75.5221C122.424 75.5911 122.545 75.6371 122.667 75.664C122.495 75.7374 122.325 75.8167 122.157 75.9014C122.159 75.7979 122.161 75.6945 122.161 75.5913L122.16 75.4366Z" fill="black"/>
<path fill-rule="evenodd" clip-rule="evenodd" d="M76.4755 95.6157C75.0392 93.254 71.9778 99.0394 71.6525 100.034C71.3644 100.915 71.1742 101.818 71.0776 102.731C69.9641 102.981 68.8078 102.981 67.6668 102.763C65.9711 102.437 64.9345 101.526 63.4607 100.744C62.4427 100.203 61.1598 100.837 60.6304 101.734C60.0077 102.789 60.4044 103.885 61.2234 104.672C62.7765 106.164 65.8322 106.506 67.8595 106.11C69.0211 105.883 70.0856 105.448 71.0257 104.815C71.0319 104.933 71.0361 105.051 71.0454 105.169L71.0634 105.374C71.2191 107.029 71.6742 109.109 72.96 110.186C75.0691 111.953 77.6719 108.556 75.6226 106.791L75.5591 106.738C74.2853 105.709 74.0074 102.949 74.076 101.429C74.121 100.437 74.3018 99.4315 74.6152 98.4864L74.6797 98.2982C74.774 98.0313 75.8027 95.4988 76.1745 95.8213L76.1922 95.8395C76.3455 96.0225 76.5932 95.8093 76.4755 95.6157ZM65.0079 82.2892C63.0691 83.4672 60.1149 86.2141 62.2006 89.1346C64.6557 91.7097 68.1905 88.7572 69.9324 87.4219C71.5475 86.387 73.3623 89.0486 71.8637 90.257C59.2769 99.5722 54.1688 82.5972 64.0273 80.9041C65.1127 80.7175 65.5159 81.9247 65.0079 82.2892ZM85.7111 71.4004C83.8163 71.0644 81.8753 71.5354 80.3073 72.6436L80.1885 72.729C78.6779 73.8333 76.9877 75.7724 77.8546 77.676C78.2025 78.4403 79.2443 78.5601 79.9055 78.2136C81.0062 77.6367 81.2057 76.2172 82.1877 75.4316C82.9932 74.7876 84.0777 74.397 85.1149 74.4912C87.5518 74.7124 89.0507 77.1149 89.8076 79.1853C89.9044 79.4502 90.2933 79.5531 90.4453 79.2687C92.23 75.9343 89.0709 71.9963 85.7111 71.4004ZM55.3605 70.142C51.7308 69.843 47.4824 73.6045 48.438 77.4342C48.8963 79.2718 51.6232 79.2192 52.108 77.4342C52.3748 76.452 52.3481 75.583 53.0554 74.7673C53.6393 74.0939 54.4688 73.7028 55.3605 73.7628C56.3433 73.829 57.2499 74.32 57.9388 75.0101C58.5609 75.6333 58.9329 76.5452 59.5774 77.0967C59.736 77.2322 59.9484 77.2409 60.105 77.0967C61.2142 76.0745 60.5484 73.9463 59.8452 72.8792C58.8387 71.3521 57.1999 70.2937 55.3605 70.142ZM92.6231 64.6081C90.2946 62.5477 86.0636 60.5579 82.9238 61.5719C81.1186 62.1548 80.3317 65.0624 82.3469 65.984C84.6805 67.0511 87.371 66.6169 89.7462 67.7231C90.7437 68.1878 91.6818 68.7686 92.3763 69.6205C92.9235 70.2919 93.4801 71.1752 94.2714 71.5623C94.4794 71.6642 94.761 71.6667 94.9277 71.4778C96.6623 69.5165 94.1376 65.9481 92.6231 64.6081ZM59.3626 61.4697C57.9236 61.066 56.3271 61.0742 54.8652 61.3277C53.4037 61.5813 51.92 62.1868 50.7269 63.0699L50.5883 63.1733C49.2858 64.1544 47.7315 65.5819 47.8148 67.32C47.8844 68.7713 49.4118 69.753 50.7304 68.9923C51.8055 68.372 52.3113 67.1293 53.2214 66.3019C53.9724 65.6189 54.8546 65.0805 55.7959 64.7032C56.8414 64.2841 57.8886 64.0878 59.0106 64.069C59.8746 64.0546 60.7437 64.338 61.5915 64.4286C61.5217 64.5718 62.1918 64.5051 62.5759 64.378C62.8604 64.2569 62.8619 63.8973 62.7633 63.664C62.2742 62.5083 60.4947 61.7869 59.3626 61.4697Z" fill="black"/>
</svg>
