<svg width="203" height="313" viewBox="0 0 203 313" fill="none" xmlns="http://www.w3.org/2000/svg">
<path fill-rule="evenodd" clip-rule="evenodd" d="M16.8986 200.453C17.7255 198.187 16.5181 195.928 15.8483 193.736C13.469 186.136 19.9769 166.966 24.5284 166.686C26.1929 162.389 30.6355 160.606 34.132 158.131C38.0998 155.66 41.9594 152.822 46.0859 150.655C46.3154 148.608 48.8029 148.101 50.324 149.565C54.5018 146.972 59.5117 147.454 63.9901 145.755C67.393 140.266 67.6483 134.494 68.5493 129.199C68.942 126.891 68.5248 124.664 70.1053 122.606C75.4148 115.155 96.3936 111.924 104.128 116.34C108.292 113.748 108.392 118.441 109.054 121.338C109.789 122.787 110.186 124.428 110.063 126.157C112.035 130.265 113.706 135.404 117.848 138.472C123.104 142.365 131.191 143.845 136.316 145.755C137.082 145.019 137.583 144.119 137.817 143.055C145.759 144.778 153.468 147.807 160.122 152.536C167.683 154.742 173.007 160.878 176.857 167.457C177.281 168.151 177.381 168.858 177.258 169.507C189.097 186.826 194.748 207.558 195.542 228.498C203.155 233.058 191.923 274.02 189.308 282.523C189.305 282.522 189.303 282.521 189.3 282.52C187.604 285.517 185.678 294.068 181.432 293.407C178.52 296.693 173.879 296.047 169.927 296.299C170.571 298.763 170.254 301.582 169.488 304.017C168.582 306.915 164.136 307.013 163.505 303.853C124.15 311.483 83.7693 305.395 43.9716 306.541C32.4648 306.622 20.959 306.977 9.47987 307.795C7.86349 307.91 6.22472 306.262 6.33473 304.656C8.80272 278.455 11.1205 243.987 13.8803 218.043C14.5348 212.126 15.0525 206.144 16.8986 200.453Z" fill="#EDB98A"/>
<path fill-rule="evenodd" clip-rule="evenodd" d="M137.817 143.055C137.804 143.113 137.79 143.171 137.776 143.229L137.926 143.57C138.88 145.764 139.356 147.581 139.356 149.021C139.356 152.303 124.718 184.78 92.2428 181.795C70.5927 179.806 57.3962 169.991 52.6533 152.351L52.3756 148.54C51.6743 148.818 50.9886 149.153 50.324 149.565C48.8029 148.101 46.3154 148.608 46.0859 150.655C41.9594 152.822 38.0998 155.66 34.132 158.131L33.8894 158.301C30.4327 160.689 26.1547 162.488 24.5284 166.686L23.8773 166.728C19.531 167.012 13.469 186.136 15.8483 193.736C16.5181 195.928 17.7255 198.187 16.8986 200.452C15.0525 206.144 14.5349 212.126 13.8804 218.043C11.1205 243.987 8.80276 278.455 6.33476 304.656C6.22476 306.262 7.86713 307.648 9.4799 307.795C42.8764 310.851 168.582 308.49 169.488 305.592C170.254 303.158 170.571 298.763 169.927 296.299C173.879 296.047 178.52 296.693 181.432 293.407C185.678 294.068 187.604 285.517 189.3 282.52L189.308 282.523C191.923 274.019 203.155 233.058 195.542 228.498C194.748 207.558 189.097 186.826 177.257 169.507C177.376 168.885 177.289 168.21 176.909 167.544L176.857 167.457C173.007 160.878 167.683 154.742 160.122 152.536C153.468 147.807 145.759 144.778 137.817 143.055ZM41.6384 197.881C43.3379 196.566 56.6918 199.197 66.3961 201.561C72.8656 203.137 77.3723 205.268 79.9161 207.954L91.3041 220.426L94.1858 222.285C94.1858 226.168 93.9636 230.251 93.5191 234.535C93.0745 238.819 91.1155 243.352 87.6421 248.134C77.4071 245.328 71.2871 243.736 69.2821 243.357C66.2745 242.789 63.8921 237.862 62.4786 236.168C61.065 234.475 55.6436 234.286 51.5129 232.982C48.7591 232.112 46.8438 229.89 45.7671 226.316C39.748 225.019 35.7691 224.155 33.8302 223.722C31.8913 223.289 31.8913 222.191 33.8302 220.426L56.3718 219.639C47.3748 217.721 41.9128 216.629 39.9857 216.365C37.095 215.969 29.3299 213.563 29.3299 211.699C29.3299 209.872 41.1509 209.905 47.452 209.908L47.9592 209.908C52.096 209.916 58.6909 210.302 67.7439 211.068L62.4786 208.552C50.5994 206.257 43.8678 205.109 42.2838 205.109C40.6999 205.109 39.5777 203.926 38.9174 201.561C39.5983 199.985 40.5053 198.758 41.6384 197.881Z" fill="#FFCF77"/>
<path fill-rule="evenodd" clip-rule="evenodd" d="M56.2218 198.318L44.6545 172.172C43.4893 169.211 41.9174 167.73 39.9388 167.73C37.9602 167.73 28.0002 168.01 10.0588 168.571C6.38706 169.038 5.14398 170.239 6.32956 172.172C7.51514 174.106 16.9226 193.062 34.5518 229.042H45.7671V226.316L33.2811 222.832C31.766 221.228 32.1896 220.426 34.5518 220.426C36.914 220.426 44.9666 220.164 58.7095 219.639L39.0532 216.761L29.33 213.03L30.7602 211.068L39.0532 209.886L66.0601 211.068L58.7095 208.588L42.2839 205.109C40.1301 203.596 39.0532 202.097 39.0532 200.612C39.0532 199.128 41.938 198.101 47.7075 197.53L56.2218 198.318Z" fill="white"/>
<path fill-rule="evenodd" clip-rule="evenodd" d="M108.405 117.957C108.292 117.65 107.832 117.69 107.823 118.035C107.642 125.402 109.48 134.405 115.387 139.381C118.42 141.935 122.429 143.104 126.111 144.448L126.526 144.601L133.031 147.019C134.757 147.66 136.618 148.647 138.142 147.741C136.909 150.792 135.873 153.928 134.371 156.869C132.502 160.53 130.241 163.879 127.475 166.926C116.515 178.995 99.1696 182.677 83.604 179.14C75.5886 177.319 67.7891 173.868 62.3207 167.573C58.1647 162.788 55.777 156.367 55.2143 150.032C55.3788 150.058 55.5512 150.057 55.7283 150.019C57.6978 149.59 59.686 148.536 61.419 147.503L61.5859 147.403C63.2534 146.402 64.9913 145.254 66.188 143.698C66.9803 142.668 67.7921 140.472 68.6236 137.111C68.9634 135.216 69.2821 131.442 69.2276 129.527C69.2226 129.346 68.4191 129.239 68.3333 129.427C67.5909 131.053 67.3509 134.625 66.7778 136.318L66.6622 136.655C66.0503 138.422 65.5256 140.574 64.2568 142.003C61.8749 144.685 58.2811 145.821 55.0733 147.166C54.843 144.134 49.9902 144.205 50.0518 147.367C50.0552 147.538 50.0628 147.709 50.0689 147.88C49.6862 148.09 49.3181 148.33 48.974 148.562L48.6383 148.789C47.3677 149.652 46.0874 150.471 44.7344 151.203C42.1151 152.62 39.3421 153.743 36.6583 155.029C33.9432 156.33 31.4039 157.88 29.033 159.736C27.9194 160.607 26.8516 161.535 25.839 162.521L25.5641 162.791C24.6002 163.749 23.3459 164.82 22.7967 166.079C22.6756 166.357 22.0692 167.002 21.7401 167.024C16.6409 167.358 11.5526 167.829 6.48544 168.535C5.17354 168.718 4.65498 169.392 5.13989 170.483C6.80629 174.233 13.3299 189.207 15.0647 193.226C14.8621 196.178 15.1358 199.654 14.9532 202.607C14.6861 206.916 14.3363 211.224 13.9171 215.522C12.417 230.894 10.143 246.191 8.08813 261.497C7.05966 269.156 6.12201 276.828 5.19644 284.5C4.72905 288.378 4.33246 292.259 4.02718 296.153C3.90002 297.775 3.78464 299.399 3.68294 301.023L3.59531 302.464C3.47464 304.277 3.1962 306.009 4.32062 307.565C4.83037 308.271 5.99463 308.669 6.66493 307.867C7.5076 306.859 7.82077 306.105 7.90129 304.781C7.96288 303.767 7.97762 302.749 8.02393 301.734C8.12393 299.535 8.24973 297.336 8.39709 295.139C8.69106 290.746 9.0266 286.355 9.4153 281.97C10.7777 266.593 13.3671 251.332 15.09 235.994C15.9585 228.261 16.5753 220.513 16.9019 212.738C17.0654 208.855 17.1246 204.972 17.0862 201.086C17.0717 199.634 17.0027 198.189 16.903 196.748C19.4841 202.599 22.1977 208.394 25.0347 214.111L25.7071 215.465C27.5049 219.079 29.3512 222.707 31.5119 226.114L31.8832 226.695C32.7587 228.079 33.9546 230.261 35.5509 230.698C36.6628 231.002 38.0215 230.788 39.1616 230.766C40.2929 230.744 41.4256 230.74 42.5562 230.694C43.8244 230.643 45.0344 230.477 46.26 230.147C46.4637 230.092 46.6564 230.033 46.8319 229.957C48.0667 231.974 50.1647 233.509 52.3098 234.404C54.028 235.121 55.8287 235.612 57.6326 236.067L58.2692 236.226C60.203 236.707 62.4152 236.935 63.5058 238.799L63.7591 239.231C64.5699 240.605 65.3478 241.813 66.6898 242.798C68.1344 243.859 69.8458 244.527 71.5506 245.046C73.2962 245.577 75.0825 245.985 76.8549 246.421L77.3379 246.54C78.508 246.833 79.6885 247.101 80.8518 247.419C81.3478 247.554 81.8528 247.694 82.3397 247.861C82.9097 248.056 83.324 248.361 83.7737 248.693C84.1779 250.103 85.9056 250.868 87.3262 250.77C88.0723 250.718 88.7416 250.465 89.3505 250.095C90.4135 250.998 91.5838 251.807 92.6673 252.643C94.1844 253.815 95.7076 254.978 97.2393 256.13C100.397 258.505 103.579 260.849 106.794 263.147C112.501 267.225 118.331 271.117 124.261 274.864C126.734 276.427 129.223 277.986 131.737 279.509L131.468 279.608L130.936 279.809C129.679 280.277 128.277 281.035 128.033 282.499C127.84 283.66 128.49 284.46 129.639 284.602C131.005 284.77 132.068 283.808 132.918 282.889C133.293 282.483 133.713 282.107 134.073 281.689C134.219 281.519 134.332 281.323 134.431 281.117C136.912 282.575 139.419 283.985 141.965 285.303L142.603 285.63C148.918 288.853 155.065 292.383 161.434 295.514C163.095 296.331 165.121 297.214 167.232 297.817C166.672 299.984 166.681 302.364 166.666 304.563C166.653 306.706 170.067 306.696 169.994 304.563L169.96 303.533C169.898 301.801 169.796 300.002 169.384 298.317C175.605 299.346 181.82 297.109 182.977 296.437C184.254 295.696 185.413 294.51 186.378 293.41C188.443 291.055 189.875 288.233 191.146 285.393C193.869 279.312 195.798 272.812 197.209 266.311C202.408 242.344 200.172 216.692 191.728 193.717C189.618 187.977 187.128 182.363 184.274 176.952L183.919 176.283C181.071 170.933 177.906 165.603 173.885 161.049C169.697 156.307 164.531 152.619 158.906 149.756C156.16 148.359 153.336 147.148 150.449 146.075C149.985 145.902 149.518 145.747 149.05 145.6C146.042 143.686 142.391 141.855 138.738 141.927C138.49 141.932 138.289 142.026 138.139 142.167C137.963 142.198 137.787 142.235 137.61 142.287C137.221 142.399 136.81 142.825 136.866 143.262L136.885 143.408C136.895 143.479 136.908 143.547 136.93 143.614C136.8 143.634 136.672 143.665 136.546 143.708C133.052 142.723 129.613 141.217 126.203 140.002L125.427 139.728C122.57 138.729 119.64 137.75 117.297 135.774C114.966 133.807 113.214 131.26 111.946 128.507C110.385 125.114 109.686 121.44 108.405 117.957ZM38.4386 296.878C37.7467 296.365 36.9285 296.961 36.6696 297.596C35.8195 299.683 36.2395 302.925 37.4377 304.77C38.6794 306.681 41.6514 305.927 41.7232 303.611C41.7982 301.197 40.3918 298.329 38.4386 296.878ZM31.2914 239.265C31.2293 238.994 30.8072 238.996 30.744 239.265C30.1679 241.713 30.1814 244.35 30.0122 246.86L29.9926 247.138C29.7897 249.906 29.6192 252.682 29.4976 255.455C29.2589 260.911 28.9736 266.367 28.6539 271.818C28.4952 274.522 28.3252 277.225 28.1439 279.927C27.576 279.611 26.9909 279.334 26.3846 279.089C25.4761 278.723 24.5916 278.681 23.6155 278.691C22.4268 278.703 21.5318 279.746 21.6891 280.908C21.8607 282.174 22.9773 282.716 24.1369 282.535C25.4211 282.335 26.7109 282.024 28.0076 281.895C27.8631 283.985 27.7139 286.073 27.5557 288.161C27.346 290.925 27.0725 293.685 26.8804 296.45C26.862 296.714 26.8422 296.978 26.822 297.243C26.0488 296.842 25.2277 296.637 24.2971 296.384L24.055 296.316C22.704 295.929 21.2586 295.393 20.008 296.3C19.1674 296.909 18.9995 297.913 19.6959 298.716C20.7517 299.936 22.3139 299.7 23.7723 299.637L24.5569 299.609C25.2964 299.58 25.9785 299.533 26.662 299.346C26.5365 301.148 26.4704 302.956 26.6917 304.731C26.8115 305.69 28.077 305.942 28.412 304.963C29.2871 302.405 29.4679 299.647 29.7882 296.968C30.0872 294.466 30.269 291.946 30.4649 289.433L30.5242 288.679C30.9648 283.15 31.3172 277.618 31.5746 272.078C31.8322 266.539 31.9869 261 32.0485 255.455C32.0765 252.937 32.0347 250.411 31.9359 247.893L31.9046 247.138C31.7909 244.549 31.8704 241.802 31.2914 239.265ZM146.934 297.286C146.9 296.933 146.616 296.493 146.194 296.548C145.805 296.598 145.404 296.574 145.019 296.638C144.511 296.722 144.102 297.022 143.629 297.21C142.861 297.517 142.023 297.675 141.235 297.926C139.756 298.397 138.951 299.95 139.563 301.401C140.207 302.926 141.825 303.272 143.223 302.632C144.326 302.128 145.147 301.322 145.888 300.389L146.098 300.123C146.417 299.722 146.78 299.274 146.914 298.789C147.044 298.316 146.98 297.768 146.934 297.286ZM75.0896 290.117C73.2478 289.858 71.6746 290.487 69.9703 291.079L69.8318 291.127C68.0972 291.724 65.5663 292.138 64.6774 293.91C64.141 294.978 64.5576 296.396 65.8198 296.713C67.8187 297.213 69.6111 295.755 71.2639 294.774L71.3508 294.722C72.9461 293.79 74.5928 293.006 75.6115 291.397C75.8834 290.968 75.6476 290.196 75.0896 290.117ZM139.387 143.95C140.125 144.115 140.863 144.261 141.6 144.401C144.404 145.901 147.126 147.457 150.021 148.793C153.092 150.211 156.153 151.676 159.071 153.391C164.965 156.856 169.825 161.361 173.84 166.884C180.776 176.423 185.936 187.424 189.628 198.586C190.577 201.454 191.426 204.354 192.177 207.278C190.849 206.053 189.277 205.299 187.514 204.654C186.767 204.381 185.837 204.843 185.458 205.489C185.288 205.779 185.192 206.066 185.209 206.406C185.249 207.156 185.738 208.009 186.546 208.157C188.429 208.504 190.261 209.178 192.077 209.772C192.352 209.862 192.589 209.828 192.778 209.722C194.581 217.342 195.709 225.12 196.108 232.944C196.446 239.568 196.238 246.244 195.502 252.859C194.937 252.606 194.385 252.368 193.765 252.224C192.962 252.038 192.171 251.811 191.388 251.554C189.126 250.814 188.094 254.54 190.406 255.108C191.266 255.319 192.132 255.495 193.009 255.623C193.773 255.735 194.448 255.686 195.169 255.568C194.618 259.695 193.867 263.792 192.909 267.831L192.698 268.715C191.454 273.873 190.005 279.08 187.909 283.954C186.881 286.346 185.519 288.617 183.838 290.61C183.013 291.591 182.096 292.431 181.097 293.227C180.264 293.89 177.436 295.328 174.086 295.328C170.736 295.328 169.829 295.012 168.139 294.431C164.796 293.283 161.623 291.451 158.488 289.818L158.164 289.65C156.778 288.934 155.397 288.209 154.02 287.476C154.194 286.075 153.889 284.898 153.157 283.604C152.367 282.204 150.407 282.901 150.261 284.333L150.257 284.388C150.235 284.711 150.18 285.04 150.113 285.368C140.905 280.334 131.891 274.948 123.021 269.336C117.307 265.72 111.654 261.997 106.084 258.164C103.3 256.249 100.539 254.299 97.8062 252.31C96.3745 251.268 94.9495 250.218 93.531 249.159C92.9402 248.718 92.3607 248.255 91.7685 247.811C91.9125 247.632 92.0527 247.452 92.1885 247.275C94.3997 244.386 95.8342 240.943 96.549 237.39C96.9806 235.247 97.189 233.022 97.2524 230.836L97.2803 229.886C97.324 228.285 97.3354 226.61 97.0398 225.058C97.4422 225.279 97.8533 225.495 98.263 225.727C99.7333 226.558 101.205 227.388 102.679 228.213C105.631 229.865 108.591 231.498 111.589 233.065C116.944 235.865 122.352 238.528 127.905 240.915L130.608 242.077C135.298 244.09 140.026 246.067 144.902 247.563C147.652 248.407 151.776 249.451 154.566 250.095C152.325 252.203 152.015 253.619 153.637 254.344C156.071 255.431 158.086 251.26 158.167 250.882C159.023 251.061 160.675 251.367 163.122 251.799C166.609 252.471 169.991 253.801 173.108 255.503C174.192 256.095 174.494 254.945 173.346 254.144C169.988 251.802 166.072 250.477 162.031 249.364L161.833 249.31C160.35 248.905 158.871 248.482 157.394 248.045C157.556 247.459 157.65 246.851 157.631 246.18C157.59 244.686 157.457 243.187 157.378 241.694C157.211 238.56 156.998 235.437 156.749 232.309C156.653 231.104 156.545 229.896 156.423 228.689C157.214 228.265 157.897 227.703 158.78 227.426L158.929 227.383C159.874 227.129 159.555 225.915 158.716 225.811C157.956 225.717 157.2 225.76 156.451 225.921C156.335 225.946 156.225 225.974 156.121 226.006C155.983 224.888 155.83 223.772 155.657 222.663C155.198 219.733 154.874 216.646 153.919 213.83C153.848 213.622 153.538 213.547 153.423 213.766C152.034 216.402 151.986 219.637 151.829 222.573L151.81 222.924C151.625 226.127 151.615 229.362 151.674 232.57C151.735 235.875 151.849 239.173 151.997 242.476C152.057 243.805 152.055 245.185 152.282 246.457C144.016 243.776 135.897 240.566 128.114 236.766C122.624 234.086 117.181 231.298 111.801 228.405C109.105 226.956 106.397 225.53 103.704 224.076C102.76 223.566 101.817 223.055 100.875 222.542L99.4612 221.773C98.1385 221.053 97.0345 220.336 95.4939 220.286C95.0347 220.271 94.6229 220.485 94.3305 220.81C93.5026 220.224 92.5457 219.865 91.5414 219.873C90.0298 217.789 88.495 215.723 86.8991 213.701L85.7201 212.205C83.6795 209.622 81.518 207.001 78.9159 205.036C77.7545 204.159 76.4771 203.501 75.1449 202.957C75.4584 202.881 75.7652 202.727 76.0387 202.474C77.3111 201.297 77.4863 199.11 77.7448 197.467C78.0129 195.764 77.9093 194.239 77.6445 192.541C77.5416 191.881 76.4463 191.744 76.1789 192.35C75.6155 193.628 75.0188 194.852 74.5061 196.145L74.3549 196.535C73.8046 197.989 72.6324 199.52 72.7098 201.098C72.7309 201.531 72.8761 201.908 73.1004 202.211C71.9822 201.84 70.8479 201.51 69.731 201.165C66.2159 200.081 62.6873 199.028 59.1045 198.187C58.1508 197.963 57.1923 197.756 56.2299 197.565C55.7257 195.176 54.9909 192.832 54.1246 190.53C54.9449 190.11 55.4759 189.407 56.1823 188.782C56.8434 188.196 57.2976 187.483 57.8616 186.811C58.375 186.199 58.0866 185.094 57.1639 185.13L56.9025 185.141C55.9466 185.185 55.0208 185.284 54.154 185.729L53.8453 185.888C53.4217 186.107 52.9581 186.359 52.5453 186.656C52.0056 185.416 51.4443 184.189 50.877 182.974L50.1409 181.403C48.2323 177.314 46.329 173.069 43.9328 169.261C42.8675 167.568 41.4498 166.511 39.415 166.347C37.3197 166.179 35.1411 166.396 33.0429 166.471C30.6104 166.558 28.1787 166.661 25.7486 166.789C26.3715 166.138 26.94 165.413 27.5656 164.788C28.604 163.752 29.7012 162.77 30.8544 161.862C33.1368 160.065 35.6464 158.585 38.2531 157.31C40.8603 156.035 43.5441 154.924 45.9916 153.349C47.5403 152.352 48.9246 151.098 50.1875 149.741C50.9826 158.299 55.1241 166.25 61.3459 172.224C67.8083 178.428 76.7387 181.837 85.4748 183.287C94.3857 184.766 103.686 184.223 112.21 181.133C116.605 179.539 120.821 177.262 124.58 174.406C124.622 174.654 124.671 174.9 124.769 175.131C124.9 175.441 125.06 175.705 125.244 175.978L125.572 176.456C125.778 176.756 125.989 177.054 126.224 177.333C126.792 178.009 127.597 178.304 128.464 178.301C130.124 178.296 131.382 176.671 130.935 175.064C130.654 174.055 130.053 173.447 129.115 173.052C128.819 172.927 128.517 172.822 128.213 172.719L127.985 172.642C127.678 172.537 127.373 172.437 127.057 172.379C128.837 170.811 130.489 169.106 131.968 167.266C136.606 161.497 141.182 153.416 139.631 145.753C139.604 145.622 139.486 145.539 139.358 145.518C139.268 144.98 138.981 144.46 138.588 144.11C138.852 144.041 139.119 143.987 139.387 143.95ZM91.2167 276.436C90.298 275.926 89.349 277.137 90.0956 277.886L91.2103 278.998C92.2449 280.036 93.2518 281.084 94.1374 282.267L94.3518 282.556C95.5471 284.178 96.8218 286.059 98.7805 286.665C101.15 287.399 103.426 284.519 102.054 282.416C100.856 280.577 98.5481 279.884 96.5585 279.124C94.6763 278.405 92.9763 277.412 91.2167 276.436ZM167.641 267.953C167.101 267.248 165.694 267.619 166.063 268.617C167.26 271.857 167.749 276.275 170.773 278.428C171.749 279.122 173.282 278.803 174.086 278.001C174.999 277.09 175.035 275.807 174.513 274.696C173.876 273.34 172.31 272.357 171.212 271.325L171.114 271.231C169.933 270.086 168.655 269.277 167.641 267.953ZM41.2182 271.682C40.2548 271.267 37.7438 270.462 36.9997 271.415C36.9649 271.45 36.9352 271.488 36.9112 271.53C36.7289 271.847 36.7018 272.293 36.9112 272.607C37.7784 273.908 38.6815 274.878 39.9143 275.804L40.0527 275.906C41.3949 276.891 42.6557 278.048 44.291 278.492C46.5577 279.107 48.1409 276.275 46.549 274.622C45.2665 273.289 43.3086 272.598 41.6092 271.855L41.2182 271.682ZM132.244 253.168C132.623 252.484 131.849 251.645 131.147 252.073C129.146 253.294 126.814 254.209 124.566 254.867C123.656 255.134 122.836 256.054 122.903 257.047L122.914 257.197C122.941 257.548 122.989 257.896 123.212 258.188C123.995 259.21 125.115 259.603 126.312 258.998C128.977 257.651 130.802 255.769 132.244 253.168ZM73.7476 251.097C73.7963 250.81 73.5855 250.588 73.2926 250.643C71.6012 250.963 70.0391 251.778 68.5866 252.715C67.8076 253.218 67.0563 253.77 66.2792 254.277C65.3191 254.904 64.9596 255.422 64.8178 256.572C64.7241 257.331 65.4344 258.024 66.0857 258.234C67.861 258.805 69.895 256.93 71.0976 255.712L71.1517 255.658C72.4107 254.377 73.4492 252.863 73.7476 251.097ZM22.9478 249.108C23.3334 248.069 22.0046 247.208 21.1356 247.718C20.3174 248.198 19.4298 248.596 18.6579 249.147C17.9486 249.653 17.3019 250.252 16.6217 250.801L16.2856 251.067C15.0382 252.067 12.9792 254.542 14.7627 255.978C16.4603 257.344 18.711 255.599 19.8503 254.323L19.9298 254.233C20.5853 253.477 21.3935 252.656 21.8691 251.774C22.3167 250.943 22.6204 249.99 22.9478 249.108ZM39.6882 168.684C41.8143 169.096 42.6809 171.715 43.5762 173.422C45.6892 177.45 47.6324 181.552 49.5841 185.66C50.1849 186.923 50.7699 188.196 51.3602 189.467C51.3963 189.567 51.4426 189.665 51.4971 189.762C52.7063 192.36 53.9517 194.941 55.4072 197.407C54.0751 197.158 52.7361 196.946 51.3921 196.779C51.4599 195.516 50.5934 193.826 50.1648 192.763L50.1291 192.673C49.5946 191.311 49.0343 189.165 47.6585 188.458C47.2001 188.222 46.7098 188.517 46.6745 189.021C46.5703 190.521 48.0401 192.237 48.7585 193.509C49.193 194.279 49.6165 195.053 50.0291 195.834C50.1839 196.127 50.3131 196.415 50.4718 196.672C49.7786 196.598 49.0846 196.531 48.3888 196.482L47.9353 196.451C45.3557 196.282 42.6159 196.233 40.2853 197.503C38.1228 198.68 37.0175 201.193 38.2055 203.482C39.6855 206.333 42.9446 206.711 45.8105 206.942C49.3902 207.23 52.9779 207.75 56.5323 208.258C60.2088 208.782 63.6708 210.135 67.2925 210.83C67.6293 210.895 67.8391 210.455 67.5301 210.267C64.6733 208.532 61.2001 207.577 58.0062 206.605L57.7479 206.526C56.0154 205.995 54.3222 205.388 52.53 205.087C50.7902 204.794 49.0396 204.558 47.2848 204.377L47.1144 204.362C45.1823 204.2 40.2533 204.255 40.4616 201.401C40.5995 199.512 43.677 199.185 45.0818 199.163C51.5226 199.06 58.0097 200.766 64.1308 202.594L65.4973 203.002C68.0037 203.755 70.5137 204.529 72.973 205.411C75.7599 206.411 77.9556 207.969 79.9854 210.103C82.236 212.468 84.4158 214.887 86.7507 217.172C88.2226 218.613 89.7134 220.028 91.2164 221.432C91.5559 221.87 91.8275 222.348 92.0156 222.967C92.3335 224.012 92.2604 224.984 92.1404 226.058C91.8377 228.771 91.7709 231.511 91.3917 234.215C91.0401 236.72 90.5485 239.317 89.5061 241.641C89.0933 242.562 88.5561 243.465 87.9443 244.274L87.4505 244.914C87.2353 245.193 86.9945 245.497 86.7417 245.783C86.3707 245.332 85.8338 245.038 85.2098 245.111C83.8837 245.267 82.8413 245.23 81.5405 244.926C80.5336 244.691 79.5346 244.415 78.5322 244.16C76.5639 243.659 74.5773 243.203 72.629 242.628L72.2941 242.527C70.8422 242.083 69.3899 241.526 68.1815 240.591C66.7775 239.504 66.3456 237.936 65.3056 236.58C63.0849 233.685 58.2863 233.745 55.0372 232.952C52.276 232.278 49.6188 231.215 47.7079 229.216L47.5964 229.097C47.6811 228.74 47.5438 228.338 47.2116 228.153L47.1393 228.113C47.0098 228.04 46.8703 228.01 46.7335 228.013C46.5561 227.753 46.385 227.485 46.2295 227.199C46.1016 226.964 45.7818 227.137 45.8237 227.37C45.8487 227.509 45.8834 227.644 45.9163 227.78C44.0653 227.305 42.0325 227.396 40.1532 227.397L37.7143 227.388C37.2923 227.383 36.6632 227.362 36.6073 227.337L36.5499 227.311C36.3978 227.245 36.6137 227.354 36.5075 227.213C36.3904 227.058 36.2757 226.901 36.1625 226.743C35.7583 226.179 35.3759 225.597 35.0011 225.01C39.0852 226.049 43.3159 226.695 47.4861 227.233C51.96 227.812 56.4928 228.213 61.0067 228.217C62.251 228.218 62.2397 226.344 61.0067 226.297C56.227 226.115 51.4724 225.862 46.7248 225.251C44.2697 224.935 41.8248 224.538 39.3937 224.074C38.4551 223.895 37.5187 223.705 36.5847 223.504L35.8846 223.352C35.4453 223.255 34.2042 223.115 33.599 222.71C33.48 222.506 33.3611 222.302 33.2431 222.099C33.3011 221.383 35.1243 221.479 35.5517 221.478C36.7636 221.475 37.9757 221.485 39.1879 221.488C41.6119 221.495 44.0357 221.474 46.46 221.455C51.3034 221.416 56.1652 221.247 61.0046 221.453C62.1794 221.503 62.7965 219.623 61.6354 219.129C56.5094 216.945 50.8192 216.47 45.3458 215.799C42.4675 215.446 39.5876 215.039 36.7738 214.324L36.0781 214.148C34.3105 213.696 32.3586 213.144 30.8701 212.067C33.1074 211.164 35.8882 211.267 38.2072 211.139L38.3847 211.129C41.6319 210.93 44.885 210.828 48.1383 210.823C54.7949 210.814 61.4536 211.049 68.1028 211.364C68.2696 211.372 68.3041 211.109 68.142 211.074C61.3078 209.586 54.3619 208.869 47.368 208.759C44.1107 208.707 40.8519 208.753 37.5974 208.897L36.4033 208.952C33.6285 209.071 30.5495 209.104 28.2279 210.776C27.874 211.03 27.6874 211.356 27.6582 211.7C24.5446 205.507 21.669 199.184 18.7818 192.904C16.5372 188.02 14.3763 183.096 12.0499 178.25L11.2968 176.683C10.2883 174.591 9.25508 172.499 8.10788 170.483C12.3978 169.911 16.7117 169.514 21.0282 169.21C24.9613 168.932 37.7947 168.318 39.6882 168.684ZM41.5878 235.806C41.0986 235.535 40.3491 235.756 40.2285 236.358C40.1388 236.806 39.9856 237.304 39.9856 237.762C39.9856 238.312 40.1825 238.908 40.2875 239.446C40.5288 240.682 40.8259 241.686 41.4557 242.787C41.8497 243.476 42.6452 243.943 43.4447 243.925C44.0779 243.91 44.639 243.741 45.0735 243.252C45.594 242.666 45.9514 241.804 45.6659 241.015C44.9179 238.949 43.5432 236.89 41.5878 235.806ZM145.355 233.744C144.21 231.743 141.496 229.955 139.128 230.132C135.573 230.398 134.847 235.175 138.29 236.315C140.347 236.997 143.178 236.297 144.978 235.176C145.464 234.874 145.641 234.245 145.355 233.744ZM181.898 226.909C182.158 226.532 181.728 226.101 181.341 226.185C180.482 226.374 179.555 226.456 178.714 226.712C177.852 226.973 177.018 227.407 176.164 227.706C174.375 228.331 172.465 228.644 170.734 229.399C170.042 229.701 169.498 230.701 169.562 231.438L169.578 231.61C169.617 231.976 169.68 232.295 169.885 232.63C170.436 233.527 171.527 233.991 172.557 233.715C174.468 233.203 176.335 231.887 177.965 230.793L178.266 230.594C178.978 230.126 179.743 229.636 180.317 229.034C180.915 228.405 181.407 227.621 181.898 226.909ZM116.212 219.632C116.432 218.841 115.446 218.319 114.872 218.853C113.724 219.92 112.523 220.91 111.399 222.004L111.324 222.079C110.518 222.886 109.347 224.442 110.394 225.486C111.736 226.825 113.604 224.839 114.324 223.804C115.237 222.491 115.785 221.167 116.212 219.632ZM28.3645 213.096C30.0675 214.896 32.6913 215.724 35.0014 216.409C37.7405 217.222 40.5627 217.707 43.3878 218.106C46.1176 218.492 48.8264 218.836 51.5129 219.279C49.4807 219.304 47.4488 219.319 45.4213 219.355C43.0831 219.398 40.7461 219.448 38.4086 219.516C36.7062 219.565 34.7087 219.332 33.091 219.964C32.7995 220.077 32.5271 220.235 32.2892 220.426C30.9291 218.013 29.6256 215.567 28.3645 213.096ZM133.406 196.265C131.629 195.701 129.957 194.954 128.073 195.148C127.572 195.199 127.213 195.686 127.487 196.166C128.38 197.734 129.832 198.619 131.261 199.668L131.387 199.761C132.952 200.923 134.632 201.981 136.333 202.934C139.262 204.574 141.887 199.879 138.929 198.502C137.149 197.673 135.279 196.859 133.406 196.265ZM101.405 192.189C98.6854 192.367 95.9677 192.489 93.2449 192.598C90.0911 192.726 91.1514 197.569 93.786 196.589C96.3887 195.62 98.9918 194.664 101.618 193.761C102.417 193.486 102.353 192.175 101.455 192.187L101.405 192.189ZM171.152 183.573C170.447 183.524 169.736 183.678 169.03 183.746L168.279 183.818C166.731 183.972 165.279 184.162 163.803 184.79C161.078 185.951 162.542 190.321 165.277 190.22C167.298 190.146 169.026 189.28 170.733 188.272C172.226 187.39 173.14 186.287 174.148 184.903C174.482 184.444 174.017 183.93 173.562 183.884C172.762 183.803 171.952 183.629 171.152 183.573ZM34.5885 174.649C35.0393 177.456 36.1583 180.087 37.8444 182.377C38.6918 183.528 40.1795 183.572 41.0193 182.377C42.2073 180.687 41.4748 178.751 40.5798 177.128L40.315 176.653C39.9143 175.94 39.2988 174.901 38.5955 174.183L38.5837 174.109C38.2068 171.17 34.124 171.757 34.5885 174.649ZM144.576 156.634C143.898 156.025 142.65 156.208 142.43 157.2C142.122 158.588 141.934 160.153 142.136 161.563C142.245 162.327 142.286 163.185 142.587 163.897C142.911 164.662 143.534 165.251 144.12 165.826C145.291 166.976 147.76 166.596 148.074 164.785L148.114 164.563C148.271 163.706 148.473 162.79 148.24 161.941C148.063 161.3 147.669 160.647 147.343 160.053L147.274 159.926C146.621 158.712 145.603 157.557 144.576 156.634ZM49.2847 159.589L49.0395 159.591C47.1472 159.629 43.6879 160.088 43.6694 162.422C43.665 162.971 44.0732 163.541 44.6203 163.668C45.7514 163.929 46.4825 163.263 47.2886 162.589C47.9478 162.038 48.7163 161.598 49.5145 161.281C50.3766 160.939 50.3203 159.587 49.2847 159.589Z" fill="black"/>
<path fill-rule="evenodd" clip-rule="evenodd" d="M52.194 47.9534C53.208 41.8191 49.8801 40.5463 52.194 34.7151C57.3365 23.9104 71.3509 24.3759 81.6349 23.5452C93.1053 23.1056 104.715 24.6198 115.289 29.2171C117.815 30.3151 120.245 31.6064 122.573 33.0735C124.587 34.3423 124.31 36.7546 123.041 38.0706C132.197 51.0361 126.96 68.4397 134.266 82.0874C135.615 84.527 137.4 86.7146 138.573 89.2529C140.356 93.1114 140.471 98.64 136.427 101.202C130.732 104.259 127.553 98.207 124.755 106.981C110.779 137.572 82.6798 139.295 56.0045 123.346C53.6967 122.062 51.3413 120.611 49.5986 118.594C45.6428 114.143 46.1087 107.883 46.0213 102.324C45.9724 99.0657 45.9643 95.8075 45.9961 92.5492C46.1205 79.351 50.4949 61.0429 52.194 47.9534Z" fill="#EDB98A"/>
<path fill-rule="evenodd" clip-rule="evenodd" d="M109.01 11.2632C92.9039 3.95742 74.6363 1.18689 57.0674 3.00415C48.3957 3.8997 39.8382 5.82104 31.6943 8.94207L30.9805 9.21794C28.9701 9.99167 26.8031 10.7597 25.2754 12.3347C23.4972 14.1651 22.9985 16.933 24.2696 19.194C25.257 20.9509 27.0323 22.2112 28.9257 22.8837C28.2587 23.4299 27.6258 24.0392 27.0323 24.7193C26.0317 25.8591 25.9555 27.4844 27.0323 28.6086C29.1069 30.7751 31.7987 32.3426 34.698 33.094C34.3723 34.667 34.5483 36.4081 35.2468 37.9759C37.2513 42.4762 42.8979 43.0125 47.243 42.7453L47.3743 42.737L47.6159 45.5023C47.7446 46.9755 48.627 48.1179 50.1239 48.3437C50.1764 48.3516 50.2292 48.3568 50.2814 48.3618C47.9127 56.9284 46.4814 65.7597 45.1605 74.539C44.4703 79.1218 43.8525 83.7153 43.2611 88.3117L43.0648 89.8439C42.4345 94.7994 41.6467 99.8047 41.3736 104.797C41.1294 109.327 41.9934 113.652 44.785 117.308C47.2903 120.585 50.7069 123.04 54.3809 124.863C62.6821 128.983 71.4192 132.051 80.6002 133.474L81.2125 133.568C84.7564 134.109 88.4078 134.565 91.9136 133.584C94.9938 132.723 98.2242 130.501 97.5283 126.932C97.2946 125.727 95.6086 125.674 95.0308 126.607L94.8975 126.82C94.2047 127.919 93.4454 128.941 92.2364 129.508C90.8211 130.176 89.1798 130.362 87.633 130.38C83.313 130.43 78.8144 129.354 74.6546 128.274C66.8865 126.258 58.9083 122.97 52.5452 117.988C49.8376 115.871 47.6632 113.224 46.8964 109.818C45.9483 105.619 46.8202 101.028 47.2509 96.8083C48.1372 88.1004 49.192 79.4085 50.305 70.7264L50.5283 68.9901C51.4656 61.7316 52.4504 54.4704 52.9181 47.1698C53.1124 46.9046 53.2437 46.6026 53.2963 46.2717L53.3695 45.7964C53.4328 45.3894 53.4433 45.0164 53.3987 44.6724C53.396 43.3541 53.3593 42.0437 53.2831 40.7251C53.2703 40.4891 53.2595 40.2527 53.2516 40.019C54.6225 40.321 56.0038 40.5652 57.3904 40.7727C67.1386 42.2407 77.0392 42.6083 86.8662 41.8783C91.7692 41.513 96.6351 40.8856 101.486 40.1004C103.955 39.7012 106.415 39.26 108.868 38.7663C110.641 38.4118 112.376 37.9312 114.12 37.4795C115.919 40.0978 116.891 43.32 116.702 46.4844C116.489 50.0953 114.083 53.3701 114.758 57.0597C115.392 60.5128 118.35 61.5834 121.271 62.4386L122.513 62.7975C123.469 63.0766 124.163 63.3458 124.336 64.4942C124.633 66.4664 124.268 68.6855 124.191 70.6682C124.1 73.0133 123.979 75.3584 123.924 77.7035C123.895 78.9167 123.848 80.1352 123.85 81.3485C123.853 82.2099 123.981 82.7981 124.315 83.3546C124.058 83.6778 123.827 84.0271 123.622 84.3974C123.556 84.5182 123.719 84.6466 123.816 84.5471C124.076 84.2766 124.352 84.0324 124.643 83.8141C124.79 83.9956 124.961 84.1794 125.161 84.3764L125.176 84.3554C125.801 84.9778 126.794 85.0382 127.569 84.3764L127.772 84.2002C128.34 83.703 128.729 83.2889 128.887 82.4672C128.895 82.4252 128.903 82.3832 128.908 82.3412C130.35 82.2913 131.815 82.6324 133.112 83.3496C135.169 84.4867 136.616 86.107 137.472 88.1081C137.13 88.5072 136.731 88.8644 136.266 89.1638C136.201 89.2084 136.259 89.3056 136.329 89.2714C136.805 89.0482 137.23 88.7725 137.611 88.4495C137.918 89.2373 138.134 90.0829 138.265 90.9784C138.727 94.1402 137.903 98.0032 135.045 99.8047C133.808 100.585 132.396 101.007 130.93 101.013C130.216 101.015 129.599 100.895 128.905 100.724C128.435 100.608 127.968 100.44 127.477 100.44C127.057 100.44 126.668 100.545 126.308 100.755L126.408 100.764C126.65 100.787 126.604 100.797 126.266 100.797C125.216 100.842 124.615 101.908 125.097 102.835L125.161 102.978C125.174 103.007 125.185 103.031 125.194 103.05L125.233 103.296C125.236 103.32 125.24 103.344 125.245 103.368L125.259 103.418C125.262 103.426 125.265 103.434 125.268 103.442L123.693 105.844C121.761 108.783 119.786 111.711 117.539 114.395C115.964 116.278 114.294 118.124 112.529 119.834C110.943 121.37 109.041 122.111 107.245 123.319C106.286 123.96 106.005 125.301 106.877 126.165C109.435 128.705 113.057 126.688 115.155 124.624C117.14 122.668 118.855 120.315 120.334 117.959C122.957 113.77 125.045 109.316 125.959 104.482C126.34 104.831 126.825 105.049 127.317 105.22C128.301 105.561 129.386 105.703 130.426 105.74C132.419 105.805 134.415 105.322 136.209 104.466C143.507 100.986 144.578 90.5661 140.116 84.421C140.718 82.6764 141.054 80.7833 141.419 79.169L141.585 78.4474C143.43 70.3872 144.669 61.901 141.398 54.0029C140.978 52.984 140.505 51.9914 139.946 51.0407C139.497 50.2765 138.725 49.4624 138.512 48.5932C138.039 46.684 140.957 44.6777 141.808 43.1624C142.808 41.3846 142.95 39.2863 141.587 37.6605C141.414 37.4559 141.225 37.2666 141.02 37.1014C142.312 34.7589 142.372 31.8124 140.67 29.5015C139.552 27.9783 137.845 26.9121 135.98 26.5891C134.84 26.3922 133.47 26.4657 132.217 26.8176C125.358 20.4493 117.532 15.1288 109.01 11.2632ZM135.35 90.9469C133.519 89.3319 131.497 88.4863 129.002 88.699C126.494 88.914 123.474 89.9516 122.001 92.1024C120.838 93.8015 123.209 96.2936 124.916 95.0174C126.471 93.854 127.508 92.541 129.438 91.9159C131.172 91.3566 133.317 90.9968 135.132 91.3172C135.332 91.3513 135.531 91.1045 135.35 90.9469Z" fill="black"/>
<path fill-rule="evenodd" clip-rule="evenodd" d="M78.3666 102.857C76.8944 100.441 73.7565 106.361 73.423 107.379C73.1278 108.28 72.9328 109.204 72.8337 110.138C71.6924 110.394 70.5072 110.394 69.3377 110.17C67.5996 109.838 66.5371 108.905 65.0264 108.104C63.983 107.551 62.668 108.2 62.1254 109.118C61.4872 110.198 61.8938 111.318 62.7332 112.124C64.3251 113.65 67.4573 114.001 69.5353 113.596C70.7258 113.363 71.817 112.918 72.7806 112.27C72.787 112.391 72.7912 112.512 72.8008 112.633L72.8192 112.842C72.9788 114.535 73.4452 116.665 74.7633 117.766C76.925 119.574 79.5929 116.098 77.4924 114.292L77.4273 114.238C76.1217 113.186 75.8368 110.361 75.9071 108.806C75.9532 107.79 76.1386 106.762 76.4598 105.795L76.5259 105.602C76.6226 105.329 77.677 102.738 78.0581 103.068L78.0763 103.086C78.2334 103.274 78.4873 103.056 78.3666 102.857ZM66.6123 89.2214C64.625 90.4268 61.597 93.2376 63.7349 96.2259C66.2514 98.8608 69.8745 95.8397 71.6599 94.4734C73.3155 93.4144 75.1756 96.1379 73.6396 97.3743C60.738 106.906 55.5023 89.5366 65.6072 87.8042C66.7198 87.6133 67.133 88.8485 66.6123 89.2214ZM87.8331 78.0797C85.8909 77.736 83.9014 78.2179 82.2942 79.3518L82.1724 79.4392C80.624 80.5692 78.8917 82.5533 79.7802 84.5011C80.1367 85.2831 81.2047 85.4058 81.8823 85.0512C83.0106 84.4609 83.215 83.0084 84.2217 82.2045C85.0472 81.5457 86.1588 81.146 87.222 81.2423C89.7198 81.4687 91.2562 83.927 92.032 86.0455C92.1312 86.3165 92.5299 86.4218 92.6857 86.1308C94.515 82.719 91.277 78.6895 87.8331 78.0797ZM56.7238 76.7922C53.0033 76.4862 48.6487 80.335 49.6282 84.2537C50.098 86.134 52.8931 86.0801 53.3899 84.2537C53.6634 83.2487 53.636 82.3595 54.361 81.5249C54.9595 80.8358 55.8098 80.4356 56.7238 80.4971C57.7312 80.5648 58.6604 81.0672 59.3665 81.7733C60.0042 82.4109 60.3855 83.344 61.0461 83.9083C61.2087 84.047 61.4263 84.0559 61.5869 83.9083C62.7238 82.8624 62.0414 80.6848 61.3205 79.5929C60.2889 78.0304 58.6091 76.9474 56.7238 76.7922ZM94.9179 71.1297C92.5312 69.0215 88.1944 66.9855 84.9761 68.023C83.1258 68.6194 82.3192 71.5945 84.3848 72.5376C86.7767 73.6295 89.5345 73.1852 91.9691 74.317C92.9915 74.7926 93.9531 75.3869 94.665 76.2585C95.2258 76.9455 95.7963 77.8494 96.6074 78.2454C96.8206 78.3496 97.1093 78.3523 97.2801 78.159C99.058 76.1521 96.4703 72.5008 94.9179 71.1297ZM60.826 67.9184C59.3509 67.5053 57.7145 67.5137 56.216 67.7732C54.7181 68.0326 53.1972 68.6521 51.9743 69.5558L51.8323 69.6616C50.4972 70.6655 48.904 72.1261 48.9894 73.9046C49.0607 75.3896 50.6263 76.3941 51.978 75.6157C53.0798 74.981 53.5983 73.7095 54.5312 72.8628C55.301 72.164 56.2052 71.613 57.17 71.227C58.2416 70.7982 59.3151 70.5973 60.4652 70.5781C61.3507 70.5634 62.2415 70.8533 63.1105 70.946C63.0389 71.0926 63.7258 71.0243 64.1195 70.8943C64.4111 70.7703 64.4127 70.4024 64.3116 70.1637C63.8103 68.9812 61.9863 68.243 60.826 67.9184Z" fill="black"/>
</svg>
