<svg width="203" height="289" viewBox="0 0 203 289" fill="none" xmlns="http://www.w3.org/2000/svg">
<g clip-path="url(#clip0_1_173)">
<path d="M34.4067 182.433H91.8026V253.071H34.4067V182.433Z" fill="#FDEA6B"/>
<path fill-rule="evenodd" clip-rule="evenodd" d="M108.543 113.342C102.356 108.633 86.8237 106.516 80.2204 111.05C73.6983 115.602 72.9873 122.965 69.9481 129.737C67.0805 128.386 62.3451 130.321 61.5137 132.981C60.4826 134.235 60.4363 137.758 59.7253 139.444C28.7861 144.366 24.089 168.473 20.365 195.841C15.4385 223.613 4.25479 251.323 9.10988 279.901C8.47728 280.816 7.97852 281.705 7.51733 282.761C6.41228 284.64 7.83563 287.3 10.0646 287.197C12.9496 286.944 15.8062 286.598 18.7048 286.49C26.7401 286.211 34.7828 286.244 42.8212 286.347L43.9174 286.361C84.4286 286.865 124.938 287.858 165.451 288.121C166.92 288.124 167.64 286.806 167.444 285.507C167.048 282.89 166.682 280.273 166.299 277.655C175.881 280.185 186.068 280.821 195.624 277.921C196.292 277.241 194.066 277.609 193.713 277.506C202.507 271.501 199.881 258.849 199.102 249.737C194.258 218.513 192.55 183.966 173.835 157.322C165.739 146.449 153.869 137.84 140.23 135.903L139.851 135.851C135.863 135.32 131.418 135.149 127.931 132.981C124.01 129.852 122.338 124.07 118.213 124.016C116.85 123.998 114.997 125.721 113.002 126.89C112.854 124.317 111.466 122.146 111.16 120.152L111.135 119.981C110.816 117.655 111.253 115.563 108.543 113.342ZM42.0523 196.666C50.7471 190.629 73.2074 193.662 73.7216 194.001C74.8537 194.745 75.3412 194.811 75.9536 195.777C76.5581 195.857 77.1621 195.94 77.7657 196.026C78.9765 196.421 78.0792 197.91 76.6806 197.379C77.5219 201.004 75.0463 203.583 74.0608 207.167C73.7408 208.331 74.0492 210.424 74.0608 211.613C73.9652 213.129 72.2879 214.92 72.5674 216.441C73.5613 221.849 78.9545 227.124 76.6806 232.369C75.1743 235.331 70.6438 236.841 67.6317 237.848C61.3911 240.242 50.5173 237.758 46.8914 232.369C44.9573 229.494 42.7167 222.243 41.5635 219.994L41.3079 216.426C40.6776 207.557 40.1169 198.01 42.0523 196.666Z" fill="#EDB98A"/>
<path fill-rule="evenodd" clip-rule="evenodd" d="M118.534 124.032L116.046 125.558L101.595 132.698C98.7931 133.482 97.3923 134.421 97.3923 135.516V146.668C97.3923 148.16 94.7633 151.542 89.5051 156.814L84.6474 151.974L84.756 151.341C85.2182 148.61 85.4494 146.784 85.4494 145.861C85.4494 144.869 80.6968 141.103 71.1918 134.563L67.0335 130.65L67.4769 129.303C64.9129 129.424 62.1324 131.002 61.5137 132.981C60.4826 134.235 60.4363 137.758 59.7253 139.444C28.7861 144.366 24.089 168.473 20.365 195.841C15.4385 223.613 4.25479 251.323 9.10988 279.901C8.47728 280.816 7.97852 281.705 7.51733 282.761C6.41228 284.64 7.83563 287.3 10.0646 287.197C12.9496 286.944 15.8062 286.598 18.7048 286.49C26.7401 286.211 34.7828 286.244 42.8212 286.347L43.9174 286.361C84.4286 286.865 124.938 287.858 165.451 288.121C166.92 288.124 167.64 286.806 167.444 285.507C167.048 282.89 166.682 280.273 166.299 277.655C175.881 280.185 186.068 280.821 195.624 277.921C196.292 277.241 194.066 277.61 193.713 277.506C202.507 271.501 199.881 258.849 199.102 249.737C194.258 218.513 192.55 183.966 173.835 157.322C165.739 146.449 153.869 137.84 140.23 135.903L139.851 135.851L139.47 135.802C135.582 135.307 131.308 135.08 127.931 132.981C124.113 129.934 122.428 124.373 118.534 124.032ZM83.907 189.486C85.3244 189.486 88.2272 191.686 92.6155 196.086L93.0021 196.264C98.3068 198.727 101.821 200.863 103.545 202.673L103.606 202.738C105.348 204.605 108.796 209.57 113.951 217.632L121.417 222.044H124.242L126.253 236.624L121.417 247.034L110.463 243.346L92.6155 238.645L82.374 228.261L76.5967 226.323C77.2976 228.346 77.5517 230.36 76.6806 232.369C75.1743 235.331 70.6438 236.841 67.6317 237.848C61.3911 240.242 50.5173 237.758 46.8914 232.369C44.9573 229.494 42.7167 222.243 41.5635 219.994L41.2327 215.359C40.6367 206.807 40.1943 197.956 42.0523 196.666C50.7471 190.629 73.2074 193.662 73.7216 194.001C74.8537 194.745 75.3412 194.811 75.9536 195.777L76.2705 195.819L74.4881 193.403L75.1192 193.067C79.6226 190.68 82.5519 189.486 83.907 189.486ZM76.6806 197.379C77.486 200.85 75.2514 203.361 74.1946 206.714L76.8948 201.548L76.8949 197.446C76.825 197.428 76.7535 197.406 76.6806 197.379Z" fill="#9DDADB"/>
<path fill-rule="evenodd" clip-rule="evenodd" d="M119.727 123.493C119.127 122.962 118.239 123.629 118.62 124.347C119.478 125.96 120.357 127.488 121.507 128.914C122.205 129.778 122.952 130.596 123.709 131.404C121.766 133.084 120.099 135.17 118.526 137.125C116.513 139.625 114.611 142.231 112.352 144.519C110.124 146.775 107.66 148.352 104.682 149.404L104.08 149.613C101.088 150.663 97.8902 152.081 96.2037 154.912C95.8711 155.47 96.5408 156.16 97.1037 155.812C100.034 153.998 103.478 153.633 106.668 152.435C109.75 151.278 112.436 149.496 114.809 147.222C117.179 144.952 119.169 142.37 121.244 139.842C123.296 137.342 125.506 135.207 127.933 133.092C131.679 135.611 135.955 136.707 140.303 137.783L140.777 137.901C145.13 138.978 149.46 140.229 153.544 142.104C157.145 143.758 160.686 145.732 163.619 148.423C166.732 151.279 169.156 154.926 171.374 158.493C176.335 166.472 179.822 175.214 182.893 184.063C186.087 193.266 188.758 202.654 190.914 212.153C192.011 216.985 192.902 221.851 193.634 226.752C193.987 229.112 194.3 231.477 194.574 233.847C194.868 236.379 194.935 238.983 195.712 241.416C196.045 242.459 196.832 242.892 197.619 242.855L197.779 244.854C197.991 247.519 198.189 250.184 198.256 252.865C198.366 257.324 198.316 261.769 197.995 266.218L197.95 266.824C197.698 270.071 197.134 273.719 194.691 276.097C192.161 278.559 188.271 279.333 184.861 279.378C176.919 279.481 169.274 275.731 162.246 272.441C155.008 269.052 147.968 265.291 141.097 261.212C137.597 259.135 134.136 256.989 130.718 254.779C129.041 253.695 127.376 252.592 125.723 251.472C124.777 250.83 123.88 250.127 122.916 249.557C123.388 249.118 123.599 248.427 123.203 247.824C125.989 245.407 127.149 241.094 127.284 237.605C127.394 234.788 126.979 231.979 126.652 229.189C126.486 227.782 126.282 226.378 126.071 224.977C125.987 224.424 125.923 223.832 125.825 223.248C133.348 227.379 141.081 231.058 149.019 234.327C153.088 236.002 157.209 237.509 161.386 238.889L162.233 239.168C166.192 240.463 170.245 241.686 174.337 242.426C174.556 242.466 174.734 242.143 174.5 242.04C170.512 240.281 166.386 238.798 162.338 237.178L161.673 236.908C161.749 236.903 161.828 236.893 161.911 236.873C164.285 236.3 166.64 235.418 168.969 234.675C171.13 233.985 173.558 233.552 175.578 232.511C175.733 232.431 175.646 232.215 175.495 232.205C173.224 232.048 170.76 232.709 168.534 233.098L167.698 233.244C166.297 233.491 164.865 233.756 163.471 234.103C163.421 233.636 163.16 233.167 162.789 232.892C158.704 229.869 159.119 223.763 158.682 219.261L158.358 215.918C157.788 210.068 157.185 204.218 156.27 198.412C156.221 198.102 155.741 198.191 155.739 198.483C155.692 205.681 156.235 212.846 156.508 220.032L156.55 221.211C156.701 225.646 156.819 230.25 159.613 233.662C159.222 233.434 158.694 233.434 158.377 233.81C157.988 234.273 157.764 234.792 157.771 235.302C155.246 234.244 152.732 233.158 150.23 232.051C142.186 228.489 134.311 224.504 126.644 220.191C125.819 219.727 125.035 220.092 124.627 220.704L124.568 220.695C124.558 220.694 124.548 220.693 124.538 220.693L124.48 220.69C124.477 220.69 124.475 220.691 124.473 220.691C123.394 220.098 121.924 220.52 120.997 221.384C120.97 221.411 120.947 221.439 120.923 221.466C119.75 220.94 118.655 220.23 117.662 219.33C115.629 217.488 113.906 215.211 112.405 212.928C109.64 208.722 107.292 204.045 103.557 200.583C100.523 197.77 96.7606 196.019 92.8138 194.92C92.8303 194.805 92.7862 194.682 92.7065 194.6C92.5038 194.392 92.3591 194.321 92.0972 194.447C92.0764 194.457 92.0639 194.471 92.0554 194.486L91.6702 193.828C91.46 193.471 91.2442 193.112 91.1694 193.018C90.7212 192.454 90.2601 191.894 89.7919 191.346C88.9981 190.419 88.0936 189.503 87.0461 188.86C84.7528 187.452 82.3419 188.249 79.9842 189.018C78.5596 189.484 77.1397 189.964 75.7176 190.436L75.5709 190.484C74.5105 190.824 73.2696 191.122 72.7954 192.245C72.6077 192.689 72.5786 193.151 72.6661 193.598C62.5945 191.038 51.4081 192.214 41.5798 195.219C41.2026 195.334 40.8259 195.644 40.7464 196.052C39.6203 201.823 39.1188 207.742 39.6283 213.612C40.068 218.679 41.1913 223.644 43.3082 228.283L43.4285 228.545C45.418 232.844 48.5711 238.144 53.3866 239.491C56.2942 240.305 59.5101 239.825 62.4757 239.676C65.3578 239.531 68.3037 239.51 71.1585 239.057C73.701 238.654 75.9286 237.515 77.4999 235.449C78.8553 233.666 79.5691 231.512 80.1539 229.369C80.4215 229.454 80.6875 229.545 80.9491 229.647C82.0537 230.078 82.9896 230.774 83.8357 231.593C85.6225 233.322 87.0085 235.423 88.878 237.073C90.5704 238.567 92.4987 239.729 94.5673 240.622C98.8535 242.473 103.452 243.212 107.985 244.193L108.302 244.262C111.715 245.011 115.199 245.93 118.211 247.706C118.27 248.228 118.509 248.72 118.891 249.042C118.359 249.541 118.134 250.331 118.601 251.072C119.905 253.141 122.152 254.318 124.169 255.641L124.3 255.727C126.284 257.042 128.285 258.33 130.303 259.592C134.405 262.159 138.592 264.584 142.839 266.903C149.669 270.632 156.646 274.149 163.749 277.34C163.322 279.436 163.478 281.598 163.158 283.708L163.109 284.009C162.972 284.792 163.157 285.447 163.696 285.959L163.753 286.011L163.752 286.004L163.803 286.051L163.82 286.065L163.814 286.061C163.877 286.117 163.941 286.17 164.006 286.216L164.089 286.269C164.609 286.585 165.279 286.582 165.811 286.303L165.872 286.269L165.974 286.211C166.677 285.807 167.162 284.805 166.871 284.009C166.153 282.053 165.883 279.966 165.22 277.997L165.746 278.232L166.438 278.533C173.927 281.77 182.245 284.495 190.404 282.289C194.009 281.314 197.379 279.251 199.183 275.889C200.958 272.581 201.209 268.74 201.303 265.061C201.419 260.519 201.176 255.908 200.576 251.405C200.174 248.383 199.687 245.303 198.937 242.312C199.323 241.972 199.607 241.484 199.682 240.879C200.036 238.022 199.416 235.052 199.037 232.21C198.666 229.435 198.256 226.666 197.793 223.905C196.858 218.329 195.772 212.765 194.507 207.255C192.255 197.448 189.283 187.816 185.703 178.413L185.39 177.594C182.083 169 178.253 160.589 172.921 153.04C170.37 149.428 167.674 146.153 164.07 143.55C160.693 141.111 156.885 139.355 152.954 138.013C149.019 136.67 144.975 135.77 140.859 135.21C136.68 134.642 132.268 134.293 128.368 132.579C128.862 131.696 128.438 130.503 127.608 129.955C124.815 128.11 122.231 125.71 119.727 123.493ZM30.2987 203.705C30.1817 203.527 29.9037 203.64 29.9551 203.85C31.3138 209.413 32.5893 214.987 33.4221 220.657C34.9256 230.889 34.649 241.255 34.5261 251.563L34.5199 252.096C34.4568 257.649 34.369 263.201 34.1853 268.752C34.0926 271.557 33.9091 274.389 34.0089 277.196C34.0633 278.718 34.4693 280.158 34.6132 281.662C34.7392 282.978 34.627 284.313 34.5641 285.63C34.5219 286.506 35.8152 286.469 35.9032 285.63L36.0157 284.546C36.1618 283.174 36.3424 281.81 36.7925 280.496C37.3336 278.916 37.5932 277.365 37.781 275.706C38.0685 273.164 38.1964 270.597 38.3074 268.037L38.3833 266.267C38.8467 255.57 38.8304 244.823 38.0802 234.137L38.0253 233.374C37.2825 223.273 35.9934 212.359 30.2987 203.705ZM59.261 140.044C59.616 139.898 59.4916 139.362 59.0986 139.455L58.3839 139.626C53.147 140.879 48.0051 142.238 43.117 144.57C38.2258 146.904 34.0848 150.389 30.7944 154.674C24.3982 163.003 21.7402 173.125 19.6418 183.238C17.3099 194.475 15.1868 205.753 12.8345 216.987L12.3977 219.08C10.2212 229.542 8.16621 240.011 6.65205 250.598L6.54329 251.366C5.01636 262.252 4.09793 273.516 5.76405 284.431C6.09364 286.59 9.68929 286.053 9.54868 283.919C9.14264 277.751 8.8519 271.616 9.13287 265.434C9.41408 259.252 9.99431 253.096 10.8593 246.967C11.5871 241.809 12.6722 236.716 13.6324 231.599L13.7829 230.791C14.587 226.439 15.4159 222.092 16.243 217.744L17.4789 211.234C19.3314 201.487 21.2201 191.731 23.3543 182.045L23.4809 181.475C25.5694 172.156 28.6485 162.395 34.9132 154.995C41.2706 147.485 50.3714 143.703 59.261 140.044ZM82.3615 238.886C82.2086 238.546 81.6738 238.583 81.5094 238.886C80.8651 240.074 80.7935 241.591 80.6718 242.932L80.659 243.07C80.5041 244.706 80.367 246.348 80.283 247.99C80.1238 251.106 80.0476 254.218 80.0574 257.338C80.0674 260.535 80.1319 263.728 80.3043 266.921L80.3511 267.776C80.5085 270.551 80.7725 273.645 82.0916 276.07C82.5711 276.952 83.8751 276.693 84.1528 275.801C85.0626 272.882 84.5955 269.42 84.3621 266.43L84.1809 264.096C84.0015 261.763 83.8304 259.428 83.6947 257.092C83.5087 253.895 83.3553 250.696 83.2077 247.498C83.1597 246.459 83.1079 245.42 83.0531 244.382L82.9688 242.824C82.8969 241.521 82.9029 240.091 82.3615 238.886ZM184.659 243.024L184.256 242.636C183.019 241.426 181.457 239.564 179.629 239.68C178.9 239.726 178.436 240.33 178.587 241.047C178.91 242.579 180.474 243.374 181.599 244.309C182.832 245.334 183.995 246.428 185.154 247.534C186.184 248.514 187.173 249.522 188.139 250.561L188.5 250.953C188.846 251.33 191.312 253.559 191.045 254.137L191.031 254.163C190.957 254.274 191.08 254.426 191.203 254.387C192.268 254.051 192.202 253.139 191.799 252.215C191.026 250.44 189.671 248.797 188.488 247.281C187.309 245.769 186.032 244.36 184.659 243.024ZM78.5034 198.499C79.3268 196.554 82.3597 196.595 84.0816 196.712C88.4176 197.004 93.109 198.101 96.9671 200.126C100.967 202.226 103.661 205.591 106.072 209.311L106.185 209.486C108.535 213.136 110.798 217.457 114.477 219.967C116.351 221.246 118.539 222.413 120.813 222.919C120.969 223.194 121.222 223.411 121.554 223.49L121.708 223.525C122.355 223.668 123.361 223.826 124.23 223.731C124.225 224.156 124.229 224.578 124.218 224.98C124.188 226.134 124.175 227.292 124.175 228.447C124.174 230.865 124.304 233.288 124.203 235.706C124.114 237.845 123.812 240.08 122.784 241.992C122.03 243.395 121.036 244.323 119.835 245.209C116.881 243.41 113.54 242.314 110.15 241.489C106.05 240.492 101.853 239.826 97.8458 238.474C95.9174 237.823 94.0635 236.971 92.3837 235.814C90.6009 234.586 89.2392 232.923 87.8382 231.297L87.6192 231.045C86.1893 229.406 84.6291 227.838 82.6084 226.949C80.8682 226.184 78.5746 226.047 77.053 224.863C76.2575 224.243 76.1908 223.344 76.1071 222.423C77.0816 222.563 78.1132 222.339 79.0844 222.226L79.5876 222.167C80.506 222.058 81.4033 221.938 82.3073 221.704C82.4753 221.661 82.4753 221.408 82.3073 221.364C81.2389 221.089 80.1799 220.971 79.0844 220.843L78.8271 220.811C77.836 220.681 76.7943 220.485 75.8221 220.703C75.6477 220.04 75.3958 219.406 75.0424 218.772C74.5464 217.881 73.6077 216.871 73.4809 215.83C73.4431 215.519 73.5155 215.153 73.6621 214.878L73.7126 214.784C73.7743 214.674 73.8473 214.562 73.9541 214.494C73.9659 214.507 73.991 214.523 74.0453 214.54C74.7935 214.776 75.4462 214.41 75.7925 213.845C77.263 214.028 78.8678 213.966 80.2468 214.027L81.6411 214.095C83.131 214.163 84.6885 214.193 86.0885 213.892C86.284 213.85 86.3431 213.525 86.1474 213.441C84.4262 212.706 82.3384 212.471 80.4957 212.188C79.4666 212.03 78.43 211.91 77.3979 211.771C76.7106 211.679 75.9813 211.525 75.2692 211.489C73.4839 209.268 74.4459 205.764 76.9304 204.807C77.8355 205.205 78.6493 204.974 79.6381 204.889C80.6251 204.804 81.6146 204.747 82.6056 204.751C84.5914 204.76 86.6957 205.282 88.6622 205.057C88.9821 205.02 89.2793 204.595 88.9613 204.335C87.4559 203.108 85.2986 202.707 83.3879 202.446L82.9918 202.393C82.3512 202.309 81.5722 202.186 80.7642 202.114C80.5815 201.757 80.2536 201.488 79.7611 201.421C79.6147 201.401 79.4676 201.389 79.3208 201.377L79.323 201.362C78.122 201.305 78.1741 199.277 78.5034 198.499ZM160.73 236.43C160.751 236.462 160.774 236.494 160.799 236.523L160.837 236.568L160.639 236.487L160.73 236.43ZM57.5446 194.154C62.6 193.611 67.6626 193.725 72.733 193.871C73.1385 195.197 74.5501 196.326 75.9179 196.369C74.8466 197.998 74.7361 200.204 75.4873 201.932C73.8924 202.566 72.5185 203.706 71.6843 205.329C70.5276 207.579 70.679 210.083 71.8222 212.163C70.8465 213.045 70.2707 214.479 70.3284 215.83C70.3928 217.337 71.2913 218.624 72.038 219.871C72.8448 221.22 72.8719 222.408 73.1197 223.919C73.4824 226.13 74.9747 227.472 76.8948 228.309L76.7928 228.711C76.2977 230.636 75.6818 232.668 74.2669 234.077C72.4468 235.888 69.6232 235.871 67.2185 235.986L67.1024 235.992C64.9004 236.102 62.6994 236.231 60.4982 236.355L58.8472 236.448C56.3128 236.587 53.8788 236.604 51.8098 234.929C48.432 232.196 46.1163 227.672 44.6506 223.668C41.5743 215.262 41.5374 206.038 42.9495 197.284C47.6853 195.758 52.5991 194.685 57.5446 194.154ZM99.5862 208.099L99.549 208.101C98.5082 208.22 97.7931 209.062 97.5384 210.062C97.1685 211.514 97.35 212.827 96.4599 214.138C95.5444 215.486 94.9814 216.566 94.8484 218.231C94.7937 218.916 94.8188 219.6 94.6661 220.271L94.5555 220.741C94.4379 221.242 94.3418 221.725 94.4002 222.263C94.4536 222.753 94.6927 223.136 95.1852 223.293C96.79 223.806 98.0292 222.624 98.4437 221.13C98.8019 219.838 98.3237 218.3 98.829 217.088C99.1089 216.416 99.6252 215.853 99.917 215.177C100.206 214.506 100.351 213.806 100.397 213.077C100.485 211.698 99.2653 210.042 99.9461 208.792C100.091 208.526 99.9268 208.091 99.5862 208.099ZM120.904 193.871C119.817 193.651 118.584 193.145 117.512 193.565C116.961 193.782 116.689 194.453 117.155 194.92C117.963 195.729 119.137 195.774 120.226 195.965L120.321 195.982C121.608 196.22 122.898 196.446 124.189 196.66C126.618 197.062 129.052 197.417 131.496 197.72C134.005 198.03 136.521 198.306 139.041 198.514L140.017 198.594C142.145 198.764 144.36 198.893 146.449 198.567C146.752 198.519 146.703 198.078 146.449 198C144.161 197.308 141.651 197.123 139.285 196.83C136.77 196.518 134.26 196.189 131.756 195.798C129.256 195.408 126.759 194.989 124.271 194.526C123.147 194.317 122.024 194.099 120.904 193.871ZM81.6903 191.649C82.6439 191.312 83.6931 190.812 84.7265 190.979C86.5085 191.268 88.0946 193.003 89.5051 194.146L88.7969 194.008C85.1728 193.312 80.3736 192.562 77.3315 194.865C77.3237 194.851 77.3177 194.838 77.3089 194.825C77.0633 194.452 76.7788 194.161 76.4682 193.842C76.4386 193.814 76.4099 193.786 76.3816 193.756L76.2141 193.578L76.5973 193.445C77.4181 193.155 78.3904 192.781 78.5442 192.726L78.5548 192.722C79.6012 192.368 80.6489 192.018 81.6903 191.649ZM111.466 115.732C111.616 113.815 108.63 113.831 108.482 115.732C108.16 119.883 109.094 123.994 111.106 127.633C111.121 127.66 111.137 127.683 111.153 127.708C109.894 128.362 108.622 128.99 107.321 129.551C105.657 130.269 103.962 130.923 102.236 131.478C100.675 131.979 98.7521 132.178 97.4397 133.222C94.6724 135.424 95.7121 139.995 96.2444 142.957L96.3275 143.425C96.5926 144.95 96.7843 146.514 96.1412 147.977C95.4544 149.54 94.0657 150.699 92.8268 151.817L92.5765 152.044C91.479 153.043 90.2249 154.257 89.4199 155.612C88.685 154.093 87.6832 152.853 86.624 151.456C85.8683 150.459 86.4062 150.13 86.9491 149.156C87.4716 148.219 87.7268 147.22 87.5634 146.15C87.2619 144.175 85.6826 142.749 84.1106 141.677C82.2541 140.412 80.1821 139.474 78.263 138.297C74.3195 135.879 70.4789 133.114 67.0189 130.043C66.9234 129.959 66.758 130.07 66.8344 130.186C69.5676 134.341 72.7725 137.931 76.7113 140.978C78.3084 142.214 79.9861 143.239 81.6751 144.316L82.1607 144.628C82.8388 145.067 83.6847 145.654 83.9913 146.401C84.2998 147.153 83.6419 147.72 83.2878 148.343C82.1632 150.321 82.7057 152.166 84.039 153.843L84.1011 153.92C85.4259 155.552 86.43 157.069 86.9102 159.154C87.9421 163.632 86.5048 168.296 85.0004 172.5L84.941 172.666C84.1271 174.932 83.2622 177.181 82.5551 179.483L82.3606 180.12C81.72 182.238 81.1954 184.327 81.914 186.505C82.1584 187.246 83.1692 187.421 83.589 186.724C85.07 184.265 85.4392 181.307 86.3676 178.604C87.2724 175.97 88.3113 173.384 89.1853 170.739C90.3106 167.333 91.0638 163.668 90.655 160.096C90.667 160.075 90.6803 160.055 90.6903 160.033L90.9768 159.407C91.758 157.711 92.5125 156.23 93.9331 154.879C95.4148 153.469 97.0232 152.221 98.1891 150.514C100.722 146.806 99.1554 142.682 98.8495 138.628L98.8145 138.131C98.759 137.289 98.7285 136.145 99.2787 135.563C99.8975 134.907 101.349 134.74 102.17 134.449C104.292 133.699 106.383 132.824 108.374 131.774C110.27 130.775 112.107 129.671 113.816 128.377L114.683 127.726C116.05 126.695 117.468 125.569 118.385 124.165C118.491 124.003 118.311 123.743 118.119 123.82C116.589 124.441 115.192 125.427 113.76 126.286C113.738 126.234 113.712 126.181 113.683 126.128C111.912 122.925 111.183 119.376 111.466 115.732ZM62.5963 137.679C61.9868 136.008 59.2087 136.137 59.3195 138.122C59.4044 139.647 60.0522 141.024 60.6445 142.408L60.7077 142.556C61.3193 143.999 62.0256 145.353 62.8708 146.675C64.4856 149.203 66.3772 151.549 68.3976 153.762C70.2292 155.769 72.6333 156.996 75.4036 156.792C76.5708 156.706 77.7491 156.41 78.7719 155.827C79.9868 155.135 81.3061 153.056 82.8561 153.559C83.0059 153.608 83.1458 153.388 83.0162 153.284C81.2269 151.844 79.196 154.077 77.4829 154.615C74.9016 155.426 72.2526 154.53 70.5911 152.444C68.8565 150.267 67.2599 147.828 65.802 145.458C65.0616 144.254 64.3861 143.004 63.8026 141.717C63.2139 140.417 63.08 139.004 62.5963 137.679ZM66.7572 127.398C66.8324 127.168 66.5457 126.948 66.3429 127.08C65.1672 127.845 64.1483 128.856 63.0638 129.742C61.8605 130.724 60.6484 131.687 59.4175 132.635C57.6232 134.018 59.7043 136.563 61.2838 135.053C63.4453 132.987 65.8125 130.286 66.7572 127.398ZM73.2124 119.313C72.7347 117.472 69.9097 118.231 70.3214 120.05L70.3348 120.106C71.1146 123.111 70.004 126.17 67.6333 128.118L67.546 128.189C66.0462 129.389 68.1711 131.486 69.6561 130.298C72.8981 127.704 74.2468 123.3 73.2124 119.313Z" fill="black"/>
<path fill-rule="evenodd" clip-rule="evenodd" d="M112.433 12.4357L110.273 15.0086C111.469 15.8528 112.598 16.7011 113.66 17.5534L113.661 17.5508C108.742 14.336 103.293 12.4357 97.4067 12.4357C86.0697 12.4357 63.0418 22.189 57.8361 29.224C55.2527 32.7153 50.452 43.4331 47.9618 55.0853C45.9609 64.4477 42.9849 90.8978 45.9609 100.837C49.7696 113.556 62.3003 125.313 75.221 125.313C88.1416 125.313 108.201 115.971 122.478 95.4977C123.131 94.5615 130.628 93.4764 135.976 89.9627L134.571 105.455L133.504 114.467L133.74 115.108C137.57 125.483 140.605 130.895 142.845 131.346C145.131 131.805 149.787 128.052 156.811 120.087L157.709 116.314C159.989 106.689 161.129 101.522 161.129 100.814L161.127 100.685C161.094 99.0562 160.533 89.836 160.522 87.3548L160.522 50.1661C152.967 25.0125 145.757 12.4357 138.893 12.4357H112.433Z" fill="#EDB98A"/>
<path fill-rule="evenodd" clip-rule="evenodd" d="M130.334 3.86936C128.113 3.00768 125.54 3.1705 123.431 4.46803C119.292 4.29019 115.175 6.71492 113.017 10.2543C112.972 10.3044 112.924 10.3545 112.881 10.4046L112.424 10.9385C111.991 11.4484 111.534 12.0104 111.172 12.5907C112.945 12.6312 114.422 13.3549 115.453 14.8165C116.188 15.8594 114.503 16.8504 113.751 15.864L113.725 15.828C113.106 14.9505 112.172 14.6106 111.131 14.5928C110.833 14.5878 110.606 14.4733 110.446 14.3045C110.382 14.5372 110.325 14.7724 110.273 15.0086C105.035 12.9684 99.3888 12.4281 93.7651 12.912C94.0117 13.3118 94.2178 13.7401 94.3764 14.1903C94.5562 14.7005 94.1726 15.2864 93.6776 15.4227C93.1424 15.57 92.6585 15.2558 92.4649 14.7703L92.4471 14.7228C92.231 14.1096 91.8781 13.5833 91.4044 13.1753C88.757 13.5347 86.1283 14.1064 83.5639 14.8433C80.4819 15.7298 77.4288 16.8116 74.443 18.0503C74.9487 18.249 75.3857 18.5846 75.6915 19.145C76.3022 20.2634 74.6233 21.2653 73.9864 20.196L73.9638 20.1564C73.9013 20.0418 73.846 19.9728 73.8054 19.9336L73.791 19.9202L73.7029 19.8796L73.5389 19.8325L73.4759 19.8171C73.4203 19.8045 73.3972 19.8053 73.251 19.7972C73.0564 19.7862 72.8616 19.7872 72.6667 19.787C72.2085 19.7867 71.9161 19.531 71.7838 19.2038C70.3104 19.8699 68.8558 20.5712 67.427 21.3059L67.0872 21.482C62.6768 23.79 58.4985 26.8208 56.0745 31.2804C55.9142 31.5785 55.8644 31.9041 55.9042 32.2147C55.3867 32.8359 54.8865 33.4772 54.4063 34.1285C52.9407 36.1224 51.8677 38.3893 50.8523 40.6362C48.8089 45.155 47.4333 49.7966 46.3603 54.636C45.3221 59.3001 44.4845 64.0143 43.7064 68.7286C42.8438 73.9663 42.126 79.2491 41.9757 84.562C41.7105 94.033 43.5591 103.559 48.8689 111.532C53.6057 118.646 60.7388 124.295 69.1977 126.103C77.8015 127.942 86.9054 126.148 93.6856 120.407C94.7788 119.483 94.6285 117.617 93.6856 116.67C92.6176 115.603 91.0422 115.75 89.9542 116.67C83.569 122.078 74.2749 122.912 66.5813 120.157C59.4682 117.607 53.8961 111.725 50.4771 105.12C46.3053 97.0639 45.6022 87.8108 46.2428 78.8984C46.5927 74.0039 47.3207 69.1494 48.0711 64.3024L48.524 61.3848C49.0181 58.2246 49.5372 55.0688 50.2142 51.9408L50.3727 51.212C51.2002 47.4399 52.1695 43.5711 53.6682 40.025C54.4538 38.1639 55.399 36.3704 56.3669 34.5994C56.5545 34.2562 56.7473 33.908 56.9449 33.5574C57.21 33.65 57.5127 33.6651 57.8303 33.5649C60.564 32.7132 63.3727 32.1421 66.2312 31.9517C67.5335 31.8645 68.8378 31.851 70.1406 31.9019C72.3708 31.7719 74.6633 31.9683 76.7878 32.6531C76.9956 32.4745 77.2062 32.2997 77.417 32.1248C77.4738 32.1203 77.5306 32.1143 77.5876 32.103C78.1296 31.9963 78.5108 31.6106 78.7404 31.1234C78.7524 31.0976 78.7631 31.0718 78.7734 31.046C79.0452 30.8378 79.3194 30.6329 79.596 30.4308C80.2703 30.6058 80.861 30.044 81.0201 29.4283C81.1702 29.3268 81.3227 29.2287 81.4743 29.1292C81.5931 29.1583 81.7112 29.1823 81.8262 29.1908C82.3227 29.2266 82.8021 29.1505 83.2421 28.9133C83.7991 28.6129 84.155 28.1285 84.3931 27.5782C85.2354 27.63 86.0878 27.3562 86.8409 26.8613C87.4521 26.4597 87.9203 25.9054 88.3858 25.3521C94.0578 22.8184 100.223 21.3225 106.404 20.9392C107.012 21.0564 107.617 21.196 108.214 21.3583C108.355 21.3969 108.556 21.4725 108.787 21.5632C107.409 21.3964 106.013 21.3798 104.598 21.584C97.8814 22.5566 92.6504 27.593 88.1482 32.347C87.0772 32.1303 85.9948 33.5193 86.9859 34.4391L94.7135 41.6108C94.524 42.4129 95.4424 43.2034 96.247 43.0108C97.596 42.6862 98.9474 42.3706 100.3 42.0602C101.71 42.7438 103.484 42.6268 104.763 41.6359C104.823 41.5898 104.952 41.5162 105.065 41.443C105.17 41.5299 105.311 41.6171 105.367 41.6542C105.822 41.9558 106.376 42.0444 106.908 41.9598C107.455 41.8728 107.948 41.5951 108.373 41.2491C108.644 41.0288 109.275 40.1094 109.627 40.0416L109.661 40.0378C109.426 40.0445 110.18 40.7456 110.382 40.8907C110.854 41.2281 111.376 41.4054 111.964 41.3408C112.988 41.228 113.868 40.2934 114.369 39.4304L114.407 39.3642L114.422 39.3231L114.436 39.3676C114.438 39.3754 114.441 39.3838 114.444 39.3933C114.519 39.5964 114.755 39.8274 114.915 39.9694C115.371 40.3734 115.936 40.551 116.539 40.4456C117.05 40.3566 117.479 40.0476 117.824 39.6737L117.878 39.6142C117.98 39.4988 118.653 38.5937 118.547 38.3768L118.534 38.3585L118.568 38.3515C118.977 38.4522 119.32 38.3512 119.572 38.1401C120.976 37.832 122.362 37.473 123.704 37.0166C123.809 37.3122 123.911 37.6078 124.011 37.9058C123.279 38.3592 122.601 39.0055 121.978 39.4664C120.797 40.3381 119.617 41.2098 118.439 42.084L113.772 45.5322L113.238 45.3887C112.556 45.2053 111.971 45.603 111.72 46.2108L111.7 46.2634C111.6 46.5297 111.481 46.7759 111.34 47.0116C110.173 46.965 109.186 47.6824 108.866 48.7115C108.578 48.7049 108.287 48.716 107.989 48.7488C107.174 48.8384 106.625 49.4446 106.772 50.277L106.784 50.3341L106.803 50.4268C106.331 50.6277 105.988 51.0157 105.912 51.6024C105.786 51.793 105.684 52.0004 105.618 52.2313C105.277 53.4297 105.941 54.9111 106.294 56.0591L106.321 56.149C106.548 56.9035 106.782 57.6543 107.02 58.4048L107.611 60.2682C109.251 65.4614 110.85 70.9367 109.523 76.381C109.24 77.5333 110.711 78.0543 111.349 77.1525C112.895 74.9692 114.565 72.912 116.319 70.9371L116.404 70.9236C117.632 70.6764 118.109 69.8074 118.673 68.9217C119.005 69.0196 119.362 69.0427 119.708 68.976C120.207 68.8796 120.655 68.5938 121.008 68.2328C121.308 67.9267 121.582 67.1417 121.936 66.9471C122.379 66.7038 123.269 67.0515 123.797 66.9734C124.227 66.91 124.629 66.7622 125.018 66.5766C125.734 67.5538 126.208 68.7025 126.325 69.9409C126.37 70.4118 126.51 70.8101 126.713 71.1408C125.967 71.1132 125.22 71.1658 124.481 71.3036C121.75 71.8121 119.792 73.5004 118.691 76.0153C118.644 76.1255 118.787 76.2157 118.852 76.1105C120.485 73.5931 124.039 73.4653 126.62 74.352C129.361 75.2939 130.899 77.7111 131.447 80.469C132.047 83.4924 131.277 86.7513 129.634 89.3263C128.871 90.5236 127.83 91.6158 126.448 92.0566C124.804 92.5801 123.286 91.6433 121.603 92.1268C120.457 92.4549 119.952 93.5646 120.16 94.6742C120.242 95.1101 120.395 95.4908 120.6 95.8215C119.995 97.0238 119.435 98.2612 118.722 99.3985C117.621 101.154 116.29 102.607 114.84 104.073C113.342 105.586 111.816 107.068 110.213 108.471C108.677 109.816 106.916 110.773 105.306 112.006C104.175 112.87 103.615 114.082 104.173 115.47C104.633 116.617 106.184 117.594 107.439 117.075C109.843 116.084 111.946 114.395 113.862 112.657C115.638 111.044 117.184 109.115 118.352 107.021C119.453 105.047 120.265 102.805 120.95 100.645L121.035 100.375C121.358 99.3484 121.698 98.1936 121.918 97.0288C123.236 97.7502 125.024 97.8554 126.435 97.6601C128.714 97.347 130.792 96.1972 132.363 94.5214C133.095 93.7417 133.742 92.8522 134.3 91.888C134.25 92.4749 134.219 93.0428 134.187 93.5596C132.881 94.9919 132.357 97.0589 132.821 98.9448C131.728 100.071 131.422 101.762 131.992 103.201C130.797 104.389 130.842 106.279 131.359 107.996C129.945 109.578 129.811 112.043 130.915 113.828L130.948 113.957C129.834 115.824 130.085 118.238 131.481 119.887C130.528 121.74 130.675 124.232 133.059 124.951C133.927 125.212 134.769 124.989 135.399 124.502C134.824 127.367 134.567 130.276 135.334 133.154C135.639 134.297 136.755 135.131 137.928 135.131C138.908 135.131 139.621 134.637 140.113 133.911C140.056 135.356 140.143 136.809 140.451 138.274C140.636 139.159 141.456 139.85 142.326 140.063C142.012 140.418 141.887 140.93 142.188 141.464C143.464 143.726 146.547 142.788 146.755 140.621C147.625 139.97 148.03 138.902 148.198 137.747C148.442 136.063 148.53 134.407 148.807 132.745L148.913 132.844L148.967 132.891L148.985 133.012C149.143 133.833 149.606 134.409 150.207 134.752C150.076 136.185 150.318 137.645 151.226 138.733C151.83 139.458 152.861 139.744 153.744 139.587C153.799 139.589 153.856 139.589 153.915 139.581C155.915 139.315 157.072 137.415 156.546 135.671C157.351 134.683 157.69 133.429 157.452 132.189C159.01 131.156 158.979 128.886 158.439 127.063C160.073 125.771 160.687 123.357 159.866 121.439C161.339 119.607 161.544 117.055 160.543 114.97C162.163 113.637 162.154 111.064 160.547 109.701C161.403 108 161.919 105.962 161.064 104.405C161.667 103.738 161.998 102.788 161.928 101.869C161.826 100.521 160.935 99.5888 159.83 98.9679L159.753 98.5461C159.493 98.5784 159.217 98.5057 158.973 98.2713C158.732 98.0391 158.483 97.852 158.226 97.6976C157.935 97.6939 157.685 97.5641 157.509 97.3645C157.027 97.2007 156.509 97.1283 155.935 97.1218C154.694 97.1082 154.65 95.2499 155.805 95.1294C155.987 94.9453 156.238 94.8293 156.511 94.8293L156.724 94.8302C157.223 94.8349 157.726 94.8657 158.189 95.0643C158.489 95.193 158.721 95.3871 158.891 95.6246C158.923 95.9838 159.118 96.342 159.54 96.6378C160.028 96.9795 160.696 97.0193 161.218 96.7102C161.949 96.2774 161.956 95.6018 161.872 94.8674C161.688 93.2607 162.61 91.7488 162.39 90.1051C162.293 89.3784 162.051 88.7509 161.658 88.2442C162.488 86.999 162.635 85.3916 161.995 84.0247C163.328 82.5891 163.558 80.3763 162.708 78.6487C162.696 78.6068 162.687 78.564 162.673 78.5227C162.577 78.2291 162.445 77.9643 162.299 77.7111C163.045 76.4171 163.039 74.8292 162.281 73.5407C163.43 72.2001 163.466 70.0667 162.445 68.6224C162.439 68.5026 162.426 68.3829 162.416 68.2631C162.885 67.0445 162.772 65.6591 162.178 64.5258C162.39 64.0361 162.553 63.5089 162.658 62.9473C162.926 61.4994 162.788 60.0917 162.388 58.6789C162.323 58.456 162.251 58.2331 162.173 58.0101C162.16 57.0425 162.123 56.0791 162.075 55.1175C162.265 54.3034 162.296 53.4089 162.3 52.5784L162.301 52.0399C162.31 50.6694 162.406 48.6628 161.541 47.4978C162.096 46.2394 161.868 44.6538 160.941 43.6563C161.591 42.5354 161.728 41.159 161.074 39.9153C160.969 39.7151 160.847 39.5288 160.713 39.3524C160.767 38.2134 160.528 37.0389 159.922 35.9069C159.528 35.17 158.94 34.532 158.241 34.0215C158.253 33.8705 158.26 33.7197 158.258 33.5711C158.246 32.9083 158.099 32.2428 157.852 31.6218C158.295 30.8638 158.501 30.0094 158.241 29.0886C157.951 28.0466 157.188 27.1498 156.235 26.6439C156.159 25.6614 156.005 24.6848 155.786 23.7211C156.372 22.4153 155.906 20.692 154.582 19.9227C154.755 18.8792 154.599 17.7971 153.841 16.982C153.554 16.6731 153.215 16.4389 152.851 16.2836C153.026 15.2343 152.828 14.1427 152.103 13.2883C151.512 12.5907 150.635 12.1668 149.742 12.1045C149.399 10.2794 147.658 8.91472 145.821 9.02343C145.591 8.21986 145.043 7.51924 144.192 7.16405C143.974 7.07312 143.754 7.01326 143.535 6.97994C142.041 5.47099 139.817 4.44825 137.892 3.92447C135.961 3.40119 134.004 3.35054 132.346 3.95893L132.225 4.00463L132.09 3.9871C131.504 3.92197 130.919 3.88439 130.334 3.86936ZM145.008 127.545C145.524 127.384 146.099 127.736 146.239 128.245C146.386 128.783 146.058 129.316 145.54 129.477C144.895 129.679 144.218 129.729 143.545 129.729C143.005 129.73 142.545 129.269 142.545 128.728C142.545 128.184 143.003 127.726 143.545 127.726C144.092 127.725 144.496 127.705 145.008 127.545ZM149.596 116.904C150.367 116.905 151.028 117.09 151.6 117.631C151.981 117.992 151.991 118.689 151.6 119.048C151.205 119.41 150.633 119.432 150.228 119.086L150.15 119.016C150.14 119.008 150.133 119.001 150.127 118.995C150.095 118.974 150.062 118.953 150.028 118.935L150.093 118.977C150.142 119.013 150.027 118.955 149.963 118.927L149.942 118.919L149.936 118.917L149.884 118.913C149.788 118.908 149.692 118.908 149.596 118.908C149.073 118.908 148.571 118.448 148.595 117.906C148.62 117.364 149.035 116.904 149.596 116.904ZM135.045 110.547C133.962 109.882 134.929 108.181 136.015 108.794L136.055 108.817C136.611 109.159 137.296 109.113 137.927 109.113C139.214 109.114 139.217 111.118 137.927 111.117L137.714 111.116C136.789 111.109 135.854 111.045 135.045 110.547ZM143.567 103.233C144.386 103.079 145.302 102.942 146.163 103.036L146.306 103.053H146.571C146.801 103.053 147.024 103.146 147.203 103.292C147.486 103.41 147.754 103.567 147.998 103.78C148.973 104.626 147.553 106.038 146.584 105.197C146.53 105.15 146.467 105.111 146.398 105.08L146.344 105.057H145.274C145.177 105.057 145.082 105.037 144.99 105.008C144.642 105.056 144.319 105.124 144.099 105.166C142.841 105.403 142.302 103.472 143.567 103.233ZM144.481 84.0009C146.049 83.2725 147.786 83.2777 149.236 84.2892C150.274 85.0125 149.31 86.7183 148.264 86.0447L148.227 86.0196C148.097 85.9289 147.963 85.853 147.828 85.7841C147.092 85.9973 146.351 86.0073 145.639 85.7452L145.546 85.7095L145.491 85.731C144.33 86.2701 143.313 84.5434 144.481 84.0009ZM127.404 80.8611C128.989 80.6832 129.001 78.1768 127.404 78.3562C124.033 78.7349 120.973 80.2361 118.733 82.8141C117.69 84.0131 119.407 85.7673 120.469 84.6217L120.501 84.5854C122.283 82.5354 124.688 81.1662 127.404 80.8611ZM145.152 67.9929C145.504 67.9543 145.855 67.935 146.201 67.9518C147.032 67.9919 148.044 68.547 147.68 69.5499C147.387 70.3535 146.429 70.3853 145.956 69.9567C145.759 69.9615 145.562 69.9745 145.366 69.9945C144.844 70.0484 144.326 70.1481 143.811 70.2498C142.554 70.4975 142.015 68.5665 143.279 68.3173L143.839 68.2064C144.027 68.1695 144.217 68.1334 144.408 68.1003C144.522 68.0434 144.645 68.0051 144.776 67.9953L144.842 67.9929H145.152ZM155.092 52.4463L155.21 52.4303C156.899 52.2138 159.612 52.413 159.817 54.5669C159.93 55.7597 158.209 55.8346 157.869 54.8146C156.622 54.5894 155.364 54.5464 154.125 54.6831C153.652 54.2022 153.649 53.2776 154.435 53.0469C154.546 52.7478 154.778 52.4916 155.092 52.4463ZM116.474 48.8084C116.865 48.4494 117.505 48.4019 117.889 48.8084C118.111 49.0424 118.296 49.3024 118.442 49.5884L118.539 49.7816C118.556 49.8136 118.573 49.8455 118.59 49.877C118.623 49.9353 118.66 49.991 118.695 50.0476L118.72 50.0712C118.729 50.0809 118.74 50.0927 118.754 50.1069C119.114 50.4879 119.159 51.151 118.754 51.5239C118.363 51.8829 117.723 51.9305 117.339 51.5239C117.118 51.29 116.933 51.0302 116.786 50.7439L116.689 50.551C116.673 50.5189 116.656 50.4871 116.638 50.4556C116.606 50.397 116.569 50.3414 116.533 50.2848L116.493 50.245C116.487 50.239 116.481 50.2326 116.474 50.2254C116.115 49.8447 116.069 49.1814 116.474 48.8084ZM136.99 46.1991C138.399 45.1986 140.076 45.152 141.372 46.3556C142.307 47.2243 140.933 48.6163 139.99 47.8023L139.957 47.7726C139.922 47.7406 139.888 47.7125 139.853 47.6857C139.684 47.83 139.469 47.9214 139.224 47.9217C139.159 47.9218 139.095 47.9217 139.031 47.923L138.935 47.9264L138.884 47.9307L138.877 47.9319L138.832 47.9511C138.75 47.9883 138.636 48.0456 138.792 47.948C138.757 47.9663 138.725 47.9878 138.692 48.0088L138.634 48.0612C138.257 48.4184 137.605 48.4655 137.23 48.0705C136.567 47.846 136.215 46.7484 136.99 46.1991ZM123.208 42.9165L123.183 42.9084C121.947 42.5549 122.472 40.6209 123.715 40.9758C125.033 41.3528 125.662 42.5815 125.926 43.8399C126.037 44.3692 125.771 44.9231 125.227 45.0726C124.731 45.2091 124.108 44.9048 123.996 44.3727C123.918 43.9986 123.828 43.6812 123.685 43.3866L123.599 43.2185C123.558 43.1418 123.544 43.1291 123.408 43.0098C123.385 42.9898 123.281 42.9412 123.208 42.9165ZM144.144 32.8239L144.337 32.7798C145.541 32.5156 147.139 32.3776 147.867 33.5731C148.529 34.6623 146.857 35.6537 146.169 34.6242C146.158 34.6239 146.146 34.624 146.132 34.6251L146.11 34.6277L145.801 34.6026C145.417 34.5999 145.049 34.668 144.676 34.7565C143.424 35.0533 142.889 33.1215 144.144 32.8239ZM100.916 25.1204C100.004 24.2073 101.419 22.7898 102.331 23.7036C103.052 24.4258 103.747 25.1529 104.216 26.0705C104.462 26.5519 104.341 27.1576 103.857 27.4414C103.41 27.7032 102.735 27.5654 102.488 27.082C102.082 26.2867 101.569 25.7752 100.916 25.1204ZM112.419 22.7237C113.32 23.2577 113.903 24.1375 114.257 25.1557C114.435 25.6667 114.055 26.2516 113.558 26.3881C113.025 26.5349 112.537 26.2219 112.345 25.7358L112.328 25.6882C112.233 25.416 112.081 25.0943 111.894 24.8516C111.734 24.6444 111.485 24.437 111.297 24.3682C110.847 24.2023 110.527 23.793 110.569 23.3151C111.31 23.5719 111.999 23.263 112.419 22.7237ZM139.38 18.3652C140.289 17.5205 141.508 17.4086 142.61 17.9198C143.1 18.1473 143.223 18.8554 142.968 19.2907C142.674 19.7945 142.092 19.8786 141.6 19.6502C141.726 19.7088 141.498 19.6314 141.4 19.6031C141.387 19.609 141.222 19.6014 141.165 19.6022L141.096 19.6066C141.096 19.607 141.113 19.6067 141.147 19.6056C141.099 19.6165 141.051 19.6294 141.004 19.6444L140.945 19.665C140.975 19.6588 140.84 19.747 140.802 19.7763L140.795 19.7819C139.852 20.6584 138.434 19.2446 139.38 18.3652Z" fill="black"/>
<path fill-rule="evenodd" clip-rule="evenodd" d="M79.4839 93.3326C78.0818 91.0276 75.0932 96.6741 74.7757 97.645C74.4944 98.505 74.3088 99.3861 74.2144 100.277C73.1274 100.521 71.9987 100.521 70.8849 100.308C69.2295 99.9905 68.2176 99.1011 66.7789 98.3374C65.7852 97.8097 64.5328 98.4285 64.016 99.3037C63.4082 100.334 63.7954 101.403 64.5949 102.171C66.111 103.627 69.094 103.962 71.073 103.575C72.2069 103.354 73.2461 102.929 74.1638 102.311C74.1699 102.426 74.174 102.542 74.1831 102.657L74.2006 102.856C74.3526 104.471 74.7968 106.502 76.0521 107.553C78.1109 109.277 80.6518 105.962 78.6513 104.24L78.5892 104.188C77.3458 103.184 77.0745 100.49 77.1415 99.0062C77.1854 98.0377 77.3619 97.0568 77.6679 96.1344L77.7308 95.9507C77.8229 95.6902 78.8271 93.2185 79.19 93.5333L79.2073 93.551C79.3569 93.7296 79.5988 93.5216 79.4839 93.3326ZM68.2893 80.3259C66.3966 81.4756 63.5128 84.1567 65.5489 87.007C67.9455 89.5203 71.3961 86.6387 73.0965 85.3354C74.6732 84.3254 76.4447 86.9231 74.9819 88.1025C62.6947 97.1941 57.7083 80.6265 67.332 78.9741C68.3916 78.792 68.7852 79.9702 68.2893 80.3259ZM88.4996 69.6984C86.6499 69.3705 84.755 69.8302 83.2244 70.9118L83.1084 70.9952C81.6338 72.073 79.9839 73.9655 80.8301 75.8234C81.1697 76.5693 82.1868 76.6863 82.8322 76.3482C83.9066 75.7851 84.1014 74.3996 85.0601 73.6329C85.8463 73.0044 86.905 72.6231 87.9176 72.7151C90.2964 72.931 91.7596 75.2758 92.4985 77.2965C92.593 77.555 92.9727 77.6555 93.1211 77.3779C94.8632 74.1236 91.7794 70.2801 88.4996 69.6984ZM58.8716 68.4703C55.3284 68.1784 51.1811 71.8496 52.1139 75.5874C52.5613 77.3809 55.2233 77.3296 55.6965 75.5874C55.9569 74.6288 55.9309 73.7806 56.6214 72.9846C57.1913 72.3273 58.0011 71.9456 58.8716 72.0042C59.831 72.0688 60.716 72.548 61.3885 73.2215C61.9958 73.8297 62.359 74.7197 62.9881 75.258C63.143 75.3903 63.3502 75.3988 63.5031 75.258C64.5859 74.2603 63.936 72.1833 63.2495 71.1417C62.267 69.6513 60.6672 68.6183 58.8716 68.4703ZM95.2469 63.0692C92.9739 61.0582 88.8437 59.1162 85.7786 60.1059C84.0164 60.6747 83.2482 63.5125 85.2154 64.412C87.4935 65.4536 90.1199 65.0297 92.4385 66.1094C93.4123 66.563 94.3281 67.1298 95.0061 67.9612C95.5402 68.6165 96.0836 69.4787 96.856 69.8564C97.059 69.9559 97.334 69.9584 97.4967 69.774C99.19 67.8598 96.7254 64.377 95.2469 63.0692ZM62.7785 60.0061C61.3736 59.612 59.8152 59.6201 58.3881 59.8675C56.9614 60.115 55.513 60.7059 54.3483 61.5679L54.2131 61.6688C52.9416 62.6264 51.4242 64.0196 51.5056 65.716C51.5735 67.1325 53.0645 68.0906 54.3518 67.3482C55.4012 66.7427 55.895 65.5299 56.7835 64.7223C57.5166 64.0557 58.3778 63.5302 59.2966 63.162C60.3172 62.7529 61.3396 62.5613 62.4348 62.543C63.2782 62.529 64.1266 62.8055 64.9542 62.894C64.8861 63.0337 65.5402 62.9686 65.9152 62.8446C66.1929 62.7264 66.1944 62.3754 66.0982 62.1477C65.6207 61.0198 63.8835 60.3157 62.7785 60.0061Z" fill="black"/>
</g>
<defs>
<clipPath id="clip0_1_173">
<rect width="202" height="288" fill="white" transform="matrix(-1 0 0 1 202.828 0.484375)"/>
</clipPath>
</defs>
</svg>
