<svg width="203" height="291" viewBox="0 0 203 291" fill="none" xmlns="http://www.w3.org/2000/svg">
<path fill-rule="evenodd" clip-rule="evenodd" d="M12.9931 249.351C13.98 243.795 14.8845 238.223 15.7066 232.64C16.0968 229.989 16.4775 227.336 16.8197 224.678C17.0594 222.816 17.4244 220.687 16.1539 219.308C14.366 217.367 12.742 215.706 12.5231 212.925C12.3172 210.309 13.2044 207.458 13.7592 204.918C14.9225 199.593 16.3708 194.334 17.9711 189.125C19.5969 183.832 21.3795 178.589 23.188 173.356C24.8786 168.464 26.5039 163.527 28.7059 158.833C32.8851 149.925 39.9551 143.328 48.6928 138.923C50.866 137.827 55.2984 133.916 57.5687 133.041C59.6559 132.236 59.6485 134.587 61.7027 133.701C63.3448 132.993 64.8739 132.049 65.7934 130.468C66.7917 128.752 69.2953 126.351 69.6765 124.353C70.4841 120.117 69.6092 116.512 72.6409 113.325C75.3324 110.494 78.9499 108.555 82.693 107.514C90.9274 105.224 101.909 106.825 106.877 114.454C109.25 118.097 110.079 122.501 113.281 125.474C116.077 128.071 115.451 129.846 119.073 131.184C119.278 131.26 124.837 130.071 125.042 130.147C129.003 129.302 132.79 131.668 136.424 133.041C141.842 135.087 147.001 137.751 151.847 140.917C161.62 147.302 169.99 155.592 176.89 164.973C183.848 174.431 189.246 185.033 193.09 196.113C194.023 198.805 194.862 201.529 195.601 204.279C196.015 205.819 196.458 207.416 195.954 208.992C195.541 210.281 194.624 211.241 193.547 212.015C192.088 213.063 189.159 213.745 189.216 215.855C189.26 217.458 189.806 219.146 190.072 220.731C190.389 222.618 190.65 224.517 190.91 226.413C192.095 235.041 193.017 243.719 193.425 252.421C193.826 260.989 194.16 269.732 193.564 278.297C193.524 278.862 193.355 279.381 193.083 279.819C193.337 279.916 193.357 280.389 193.04 280.456C192.818 280.503 192.597 280.549 192.375 280.596C191.915 280.944 191.34 281.157 190.679 281.178C190.23 281.192 189.782 281.212 189.335 281.235C184.61 282.22 179.885 283.15 175.099 283.854C169.28 284.711 163.444 285.409 157.59 285.976C145.562 287.142 133.628 286.755 121.583 286.127C109.557 285.499 97.5384 285.353 85.5 285.665C73.451 285.977 61.4064 286.5 49.3548 286.714C35.8906 286.952 22.4469 286.586 9.02164 285.519C7.18092 285.372 6.04207 283.912 6.40512 282.089C8.58023 271.168 11.0452 260.32 12.9931 249.351Z" fill="#FFDBB4"/>
<path fill-rule="evenodd" clip-rule="evenodd" d="M136.424 133.041L136.161 132.94C132.607 131.555 128.908 129.322 125.042 130.147C124.905 130.096 122.389 130.607 120.666 130.931L122.302 132.634L125.188 133.187C115.231 149.573 103.454 157.765 89.8587 157.765C76.2629 157.765 65.9463 149.573 58.9089 133.187L57.9486 132.922C57.8299 132.95 57.7037 132.989 57.5686 133.041C55.2982 133.916 50.8659 137.827 48.6927 138.922C39.955 143.327 32.8849 149.924 28.7058 158.833C26.5772 163.37 24.9875 168.135 23.3567 172.867L23.1879 173.356C21.3795 178.589 19.5967 183.832 17.971 189.125C16.4402 194.108 15.0486 199.136 13.9124 204.224L13.7591 204.918C13.2043 207.458 12.3171 210.309 12.523 212.925C12.601 213.916 12.8573 214.764 13.2358 215.534L32.9298 222.6L23.5473 286.404C32.1417 286.771 40.744 286.866 49.3547 286.714C61.4063 286.5 73.4509 285.977 85.4999 285.665C97.1735 285.362 108.829 285.491 120.49 286.071L123.451 286.222C134.863 286.791 146.184 287.082 157.59 285.976L158.368 285.9L158.368 276.567L154.361 224.597L174.666 220.786L194.599 211.133C195.201 210.533 195.685 209.832 195.953 208.992C196.42 207.532 196.075 206.054 195.693 204.621L195.601 204.279C194.862 201.529 194.023 198.805 193.09 196.113C189.246 185.033 183.848 174.431 176.89 164.973C169.99 155.592 161.62 147.302 151.847 140.917C147.001 137.751 141.842 135.087 136.424 133.041Z" fill="#EC7495"/>
<path fill-rule="evenodd" clip-rule="evenodd" d="M128.799 129.878C127.554 129.824 126.284 130.025 125.042 130.147C124.934 130.157 124.892 130.324 125.014 130.349C127.237 130.812 129.436 131.446 131.619 132.089L132.554 132.365C135.016 133.091 137.406 133.84 139.79 134.809C144.54 136.739 149.051 139.344 153.204 142.338C169.193 153.864 180.765 171.315 188.067 189.383C190.05 194.29 191.731 199.319 193.092 204.432C193.423 205.676 193.734 206.925 194.03 208.178C194.116 208.546 194.494 209.486 194.287 209.862C194.104 210.194 193.392 210.4 193.061 210.573L191.944 211.15C189.766 212.269 186.138 214.109 185.775 214.288L185.207 214.567C175.926 219.103 166.01 222.95 155.566 223.216L155.484 222.327C155.019 217.411 154.408 212.468 153.074 207.703C153.002 207.447 152.675 207.534 152.645 207.761C151.902 213.402 152.14 219.087 152.399 224.755C152.858 234.792 153.468 244.824 154.009 254.858C154.281 259.877 154.631 264.893 154.948 269.91C155.265 274.936 155.367 280.084 156.091 285.069C156.253 286.18 157.558 286.784 158.547 286.667C159.64 286.537 160.482 285.577 160.487 284.476C160.5 281.571 160.134 278.633 159.931 275.736C159.738 272.984 159.53 270.233 159.318 267.482C158.541 257.442 157.648 247.414 156.822 237.379C156.529 233.819 156.213 230.263 155.887 226.707C166.951 226.352 177.287 222.266 187.147 217.492C187.29 220.723 187.634 223.948 187.968 227.166C188.9 236.145 189.721 245.121 190.336 254.128C190.646 258.677 190.872 263.232 191.069 267.787C191.166 270.026 191.244 272.265 191.305 274.505C191.325 275.252 191.343 275.998 191.36 276.745L191.393 278.456C191.421 279.54 191.531 280.544 192.446 281.333C193.375 282.134 194.63 282.177 195.549 281.333C196.78 280.203 196.563 278.663 196.526 277.145C196.496 275.865 196.459 274.585 196.417 273.305C196.332 270.745 196.224 268.186 196.092 265.628C195.63 256.686 194.707 247.779 193.502 238.908L193.031 235.484C192.152 229.118 191.187 222.607 189.222 216.474C189.987 216.095 190.75 215.713 191.51 215.329C192.858 214.649 194.252 214.01 195.562 213.259C196.601 212.663 197.498 211.846 197.787 210.64C198.11 209.296 197.616 207.827 197.289 206.516L197.26 206.401C196.939 205.081 196.592 203.766 196.227 202.458C194.746 197.152 192.915 191.949 190.771 186.873C186.48 176.711 180.941 167.057 174.174 158.328C168.084 150.47 160.889 143.345 152.456 138.001C148.334 135.388 143.94 133.243 139.294 131.726C137.122 131.017 134.759 130.4 132.486 130.147C131.259 130.01 130.031 129.931 128.799 129.878ZM106.738 113.775C105.258 112.191 102.319 113.83 103.029 115.928C104.7 120.864 107.361 125.365 111.514 128.608C115.418 131.657 120.073 133.637 125.086 133.214C125.125 133.211 125.158 133.201 125.188 133.187L124.756 133.772C121.364 138.346 117.786 142.857 113.473 146.596C104.687 154.215 92.7228 158.324 81.1703 155.401C72.081 153.101 64.0733 145.935 61.7183 136.802C62.0559 136.953 62.4571 137.004 62.8975 136.909C64.7818 136.501 66.6473 134.525 67.8625 133.108C69.1771 131.576 70.2038 129.921 70.9564 128.05C72.3337 124.626 72.7753 120.218 70.8947 116.902C70.6626 116.493 70.1274 116.722 70.0819 117.121L70.0103 117.744C69.6478 120.852 69.1961 123.859 67.7264 126.692C67.0071 128.079 66.1449 129.432 65.0954 130.593C64.5338 131.215 63.925 131.808 63.2677 132.329C62.6272 132.837 61.8519 133.203 61.2778 133.786L61.1726 133.898L61.1697 133.878C61.0245 132.647 60.1591 132.105 59.3123 132.139C58.4928 132.172 57.5303 132.531 57.1575 132.704L57.1223 132.72C51.4055 135.456 46.1403 139.023 41.1855 142.98C30.9388 151.163 23.2613 161.86 19.5415 174.457C17.7157 180.64 16.6681 187.01 15.5622 193.351L14.8814 197.236C13.8492 203.09 12.6962 209.059 10.366 214.504C9.76332 215.913 10.228 217.234 11.7059 217.788C13.5512 218.479 15.4035 219.149 17.2586 219.811C16.3477 223.707 15.7922 227.739 15.1097 231.654C13.659 239.978 11.8814 248.248 10.3572 256.56C9.57802 260.81 8.87491 265.075 8.09642 269.325C7.72162 271.372 7.33041 273.416 6.94998 275.462C6.74509 276.565 6.55927 277.672 6.36366 278.777L6.32962 278.96C6.21758 279.543 6.0768 280.146 6.23759 280.729C6.42096 281.394 6.94167 281.864 7.40656 282.341C7.78918 282.734 8.34221 282.736 8.81102 282.522L8.96521 282.451C9.80254 282.06 10.4585 281.671 10.7555 280.729C10.9435 280.133 11.0114 279.461 11.1342 278.847C11.37 277.669 11.5935 276.49 11.8045 275.307C12.2266 272.941 12.6389 270.573 13.0413 268.204L13.4172 265.985C14.7074 258.338 15.9327 250.644 16.5521 242.916C16.8269 239.488 17.1181 236.062 17.412 232.636L17.6327 230.066C17.9118 226.814 18.2528 223.479 18.301 220.182L19.4103 220.575L24.8232 222.483C26.1653 222.956 27.874 223.925 29.3184 223.749C30.0254 223.662 30.5645 223.44 30.9806 223.037C30.4822 230.051 29.8075 237.052 28.9083 244.018C28.0902 250.356 27.1832 256.685 26.1119 262.986C25.5814 266.106 25.0362 269.223 24.444 272.332C24.148 273.886 23.8425 275.439 23.5277 276.99C23.3708 277.764 23.184 278.538 23.0616 279.318C22.9215 280.212 23.1683 280.761 23.6689 281.496C24.08 282.1 24.9023 282.41 25.5689 281.993C26.4517 281.441 26.9122 280.962 27.1719 279.957C27.4079 279.043 27.5513 278.089 27.734 277.164C28.0711 275.456 28.3969 273.745 28.7115 272.033C29.3693 268.452 29.9757 264.861 30.5172 261.261C32.4255 248.575 33.6363 235.784 34.2478 222.972C34.5497 216.65 34.643 210.324 34.5894 203.996C34.5619 200.752 34.4557 197.499 34.2256 194.264C33.9925 190.989 33.5078 187.779 33.075 184.536C33.0598 184.422 32.8982 184.415 32.8914 184.536C32.6864 188.172 32.3653 191.805 32.2079 195.451C32.0575 198.93 31.9917 202.414 31.8722 205.895C31.7153 210.469 31.4977 215.047 31.2095 219.621C30.6878 219.052 29.9015 218.724 29.1147 218.852C27.9749 218.614 26.7479 218.017 25.6612 217.655L21.5646 216.291C19.411 215.574 17.2574 214.862 15.0962 214.171C17.0285 207.689 18.3521 201.111 19.4823 194.437L19.9864 191.436C20.9842 185.528 22.06 179.617 23.8672 173.896C25.7672 167.881 28.6104 162.289 32.3822 157.224C36.1001 152.234 40.6234 147.839 45.2806 143.728C49.2678 140.21 53.5331 137.032 57.5999 133.61C57.5573 133.837 57.5482 134.087 57.5857 134.361C58.4503 140.671 61.7516 146.547 66.3523 150.917C75.595 159.698 89.2766 161.519 101.106 157.402C112.549 153.419 122.667 143.987 126.241 132.315C126.302 132.116 126.034 132.036 125.926 132.183C125.728 132.454 125.529 132.725 125.329 132.996C125.343 132.888 125.286 132.771 125.153 132.72C120.983 131.114 116.887 128.837 113.761 125.616C112.237 124.046 110.908 122.267 109.858 120.348C109.355 119.429 108.903 118.477 108.543 117.494L108.451 117.239C108.015 116.007 107.65 114.751 106.738 113.775Z" fill="black"/>
<path fill-rule="evenodd" clip-rule="evenodd" d="M53.308 44.6063C54.2512 38.9046 51.1556 37.7215 53.308 32.3015C58.0917 22.2587 71.1284 22.6914 80.6949 21.9192C91.365 21.5106 102.165 22.9181 112.001 27.1912C114.351 28.2118 116.611 29.412 118.777 30.7757C120.651 31.955 120.393 34.1972 119.212 35.4204C127.729 47.4717 122.858 63.6481 129.654 76.3335C130.909 78.601 132.57 80.6343 133.661 82.9937C135.32 86.5801 135.426 91.7189 131.664 94.1007C126.366 96.9419 123.41 91.3164 120.807 99.4713C107.806 127.906 81.6669 129.507 56.8527 114.682C54.7058 113.489 52.5148 112.141 50.8937 110.266C47.2139 106.128 47.6473 100.31 47.5659 95.1427C47.5205 92.1146 47.5129 89.0861 47.5425 86.0575C47.6583 73.79 51.7274 56.7728 53.308 44.6063Z" fill="#FFDBB4"/>
<path fill-rule="evenodd" clip-rule="evenodd" d="M106.16 10.5032C91.1777 3.71258 74.1845 1.13741 57.8414 2.82653C49.7747 3.65893 41.8142 5.44479 34.2385 8.34575L33.5745 8.60216C31.7044 9.32134 29.6885 10.0352 28.2674 11.4991C26.6133 13.2004 26.1494 15.7732 27.3318 17.8748C28.2503 19.5078 29.9017 20.6792 31.6631 21.3043C31.0425 21.812 30.4538 22.3783 29.9017 23.0105C28.971 24.0699 28.9001 25.5806 29.9017 26.6255C31.8316 28.6393 34.3356 30.0963 37.0326 30.7946C36.7297 32.2567 36.8933 33.8751 37.5432 35.3323C39.4078 39.5153 44.6604 40.0138 48.7025 39.7654L48.8246 39.7577L49.0493 42.328C49.169 43.6973 49.9898 44.7591 51.3823 44.9691C51.4312 44.9764 51.4803 44.9813 51.5289 44.9859C49.3254 52.9484 47.994 61.157 46.7652 69.3173C46.1232 73.5769 45.5485 77.8465 44.9983 82.1188L44.8157 83.543C44.2294 88.149 43.4966 92.8014 43.2425 97.4416C43.0153 101.652 43.819 105.672 46.4158 109.07C48.7464 112.116 51.9246 114.399 55.3423 116.093C63.0643 119.922 71.1919 122.773 79.7324 124.096L80.3019 124.184C83.5986 124.687 86.9952 125.111 90.2565 124.199C93.1218 123.398 96.1268 121.333 95.4794 118.016C95.262 116.896 93.6937 116.847 93.1562 117.713L93.0322 117.912C92.3877 118.934 91.6814 119.883 90.5567 120.41C89.2402 121.031 87.7134 121.204 86.2745 121.221C82.2559 121.267 78.0712 120.267 74.2016 119.263C66.9754 117.389 59.5539 114.333 53.6347 109.702C51.116 107.735 49.0933 105.275 48.38 102.109C47.4981 98.2056 48.3091 93.9389 48.7097 90.0163C49.5342 81.9224 50.5154 73.8434 51.5508 65.7735L51.7585 64.1596C52.6304 57.4129 53.5465 50.6637 53.9816 43.878C54.1623 43.6314 54.2845 43.3507 54.3333 43.0432L54.4015 42.6014C54.4604 42.223 54.4701 41.8764 54.4286 41.5567C54.4262 40.3313 54.392 39.1133 54.3211 37.8877C54.3092 37.6683 54.2991 37.4486 54.2918 37.2313C55.567 37.512 56.852 37.739 58.1419 37.9319C67.21 39.2964 76.4198 39.6381 85.5612 38.9595C90.1221 38.62 94.6486 38.0368 99.1609 37.307C101.457 36.936 103.746 36.5259 106.028 36.067C107.677 35.7375 109.292 35.2908 110.914 34.871C112.587 37.3046 113.491 40.2996 113.315 43.2409C113.117 46.5972 110.88 49.641 111.507 53.0705C112.097 56.2801 114.849 57.2752 117.566 58.0701L118.721 58.4037C119.61 58.6631 120.256 58.9133 120.417 59.9807C120.693 61.8139 120.353 63.8765 120.282 65.7194C120.197 67.8991 120.085 70.0788 120.033 72.2586C120.006 73.3863 119.963 74.5189 119.965 75.6466C119.967 76.4472 120.087 76.994 120.397 77.5112C120.158 77.8117 119.943 78.1363 119.752 78.4805C119.691 78.5928 119.843 78.7121 119.933 78.6196C120.175 78.3682 120.432 78.1412 120.703 77.9384C120.839 78.107 120.998 78.2779 121.184 78.461L121.198 78.4414C121.78 79.0199 122.703 79.0761 123.424 78.461L123.613 78.2972C124.141 77.8351 124.504 77.4502 124.65 76.6864C124.658 76.6474 124.665 76.6083 124.67 76.5693C126.011 76.5229 127.374 76.84 128.581 77.5066C130.494 78.5635 131.84 80.0695 132.636 81.9295C132.319 82.3005 131.947 82.6325 131.515 82.9108C131.454 82.9523 131.508 83.0426 131.574 83.0109C132.016 82.8034 132.411 82.5471 132.766 82.2468C133.052 82.9791 133.252 83.7651 133.374 84.5975C133.804 87.5363 133.037 91.1269 130.379 92.8014C129.228 93.5264 127.914 93.9193 126.551 93.9242C125.887 93.9264 125.312 93.8144 124.667 93.6557C124.23 93.5483 123.795 93.3921 123.338 93.3921C122.948 93.3921 122.586 93.4897 122.251 93.685L122.344 93.6931C122.57 93.7143 122.526 93.7238 122.212 93.7238C121.235 93.7656 120.676 94.7566 121.125 95.6182L121.184 95.7513C121.197 95.7782 121.207 95.8005 121.215 95.8181L121.251 96.0467C121.254 96.0684 121.258 96.0908 121.262 96.1137L121.276 96.16C121.278 96.1674 121.281 96.1748 121.284 96.1821L119.818 98.4151C118.022 101.147 116.185 103.868 114.094 106.363C112.629 108.113 111.075 109.829 109.433 111.418C107.958 112.846 106.189 113.535 104.518 114.657C103.626 115.253 103.365 116.5 104.176 117.303C106.556 119.664 109.924 117.789 111.876 115.871C113.723 114.052 115.318 111.865 116.694 109.675C119.134 105.782 121.076 101.642 121.926 97.1487C122.281 97.4733 122.733 97.6759 123.189 97.8346C124.106 98.1519 125.114 98.2837 126.082 98.3179C127.936 98.3789 129.793 97.9298 131.461 97.134C138.25 93.8998 139.247 84.2142 135.096 78.5025C135.656 76.8808 135.968 75.1213 136.308 73.6208L136.463 72.9501C138.179 65.4582 139.331 57.5704 136.288 50.2293C135.898 49.2822 135.458 48.3595 134.937 47.4759C134.52 46.7656 133.802 46.0089 133.604 45.201C133.164 43.4264 135.878 41.5615 136.669 40.1531C137.6 38.5006 137.732 36.5503 136.464 35.0391C136.303 34.849 136.127 34.673 135.937 34.5195C137.139 32.3422 137.195 29.6035 135.612 27.4554C134.571 26.0397 132.983 25.0487 131.249 24.7485C130.188 24.5654 128.913 24.6337 127.748 24.9608C121.367 19.0416 114.087 14.0963 106.16 10.5032ZM130.662 84.5682C128.96 83.067 127.078 82.281 124.758 82.4788C122.425 82.6787 119.615 83.6431 118.245 85.6422C117.163 87.2215 119.369 89.5379 120.957 88.3516C122.403 87.2703 123.368 86.0498 125.163 85.4689C126.776 84.949 128.772 84.6146 130.46 84.9124C130.645 84.9441 130.831 84.7146 130.662 84.5682Z" fill="black"/>
<path fill-rule="evenodd" clip-rule="evenodd" d="M67.668 101.756C67.2924 101.105 66.4278 100.502 65.6366 100.594C62.092 101.009 62.0981 105.293 63.4668 107.795C64.6803 110.013 67.1918 111.315 69.7055 111.125C72.3463 110.925 74.5963 109.377 75.5866 106.914C76.2414 105.284 76.544 102.276 74.8019 101.182C74.7696 101.161 74.7163 101.166 74.6906 101.196C73.8553 102.165 73.8225 103.619 73.0912 104.698C72.4111 105.701 71.3545 106.529 70.1168 106.657C69.1924 106.753 68.2572 106.421 67.8957 105.593C67.7 105.145 67.7223 104.902 67.7958 104.594L67.8627 104.327C68.0942 103.389 68.1982 102.675 67.668 101.756ZM66.7204 82.9643C64.8718 84.0847 62.055 86.6972 64.0438 89.4748C66.3847 91.9239 69.755 89.1159 71.4159 87.8459C72.9559 86.8617 74.6862 89.393 73.2574 90.5423C61.256 99.4017 56.3855 83.2573 65.7854 81.647C66.8204 81.4695 67.2048 82.6177 66.7204 82.9643ZM86.2422 75.2816C85.1075 73.5842 82.5174 73.8341 81.8924 75.8484C81.5538 76.9395 82.0214 77.9202 81.9972 79.0099C81.9769 79.9303 82.0373 80.956 82.3203 81.8474C82.9656 83.8802 84.7993 85.316 86.9685 85.2564C89.1306 85.1971 91.035 83.8326 91.9406 81.9109C92.8493 79.9818 92.6569 77.9854 91.9934 76.0239C91.9616 75.9297 91.8377 75.884 91.7631 75.9633C90.9789 76.7943 90.4048 77.6715 89.8108 78.602L89.202 79.5557C88.7368 80.2738 88.0607 81.1912 87.192 81.1336L87.0617 81.1208C86.8203 81.1001 86.8573 81.1479 86.6711 80.8198C86.5849 80.668 86.6006 80.3858 86.5589 80.2066L86.5445 80.1461L86.5524 80.1135C86.5707 80.0267 86.589 79.8632 86.6038 79.5795L86.6069 79.5168C86.6698 78.1897 87.0461 76.4842 86.2422 75.2816ZM57.4792 76.4116C57.6826 74.2407 54.6216 73.7586 53.6039 75.365C53.0731 76.2027 52.9186 77.255 52.8012 78.2519L52.7463 78.7251C52.6259 79.7491 52.5781 80.8143 53.0239 81.7695C53.726 83.2738 55.2529 84.069 56.9 83.9431C58.4729 83.8225 59.9079 82.9133 60.6644 81.5329C61.3388 80.3012 62.0094 77.8964 61.1903 76.6118C61.1408 76.5339 61.0419 76.5239 60.9741 76.584C60.2 77.2691 60.0739 78.5189 59.6137 79.4115C59.139 80.3322 58.419 81.2295 57.3279 81.3694C56.284 81.5031 55.8853 80.9347 56.1516 79.9424C56.4951 78.6614 57.3499 77.79 57.4792 76.4116ZM85.4153 62.3748L84.9147 62.1836C83.1996 61.5376 80.8448 60.7909 79.4503 62.1815C78.5901 63.039 78.4263 64.3022 79.0403 65.3486C79.7843 66.6162 81.1187 66.6474 82.4074 66.8341C83.873 67.0465 85.3637 67.4502 86.7282 68.0258C88.2654 68.6743 89.6919 69.4828 91.0895 70.3857C92.4178 71.2437 93.7415 72.646 95.3315 72.9103C95.3964 72.9211 95.4701 72.8932 95.487 72.8222C95.8481 71.2722 94.8446 69.7469 93.9491 68.5377C92.8656 67.0736 91.5527 65.8719 90.0853 64.7945C88.6691 63.7544 87.0509 63.0029 85.4153 62.3748ZM54.2592 67.8856L54.1063 67.8589C53.0662 67.6862 52.1237 67.726 51.3399 68.5473C50.7416 69.1739 50.511 69.986 50.7962 70.8144C51.0593 71.5787 51.6479 72.3552 52.502 72.5153C55.3856 73.0562 58.5796 72.9668 61.4777 72.5573C62.8036 72.3698 64.1414 72.1404 65.4329 71.7786L66.0271 71.6069C67.1053 71.2998 68.3396 70.979 69.1228 70.1883C69.4043 69.9042 69.242 69.4976 68.9051 69.366C67.5386 68.8324 65.6656 69.1163 64.2085 69.0746C62.5134 69.0262 60.8157 68.8995 59.1287 68.725C57.4802 68.5542 55.885 68.1829 54.2592 67.8856Z" fill="black"/>
</svg>
