<svg width="203" height="287" viewBox="0 0 203 287" fill="none" xmlns="http://www.w3.org/2000/svg">
<path fill-rule="evenodd" clip-rule="evenodd" d="M27.1713 165.688C30.5695 149.598 42.6211 137.113 58.8293 130.893C61.9449 129.132 64.965 121.575 69.1521 120.191C69.8233 119.969 68.7639 121.735 69.1521 121.84C70.5368 122.216 72.0884 122.255 73.6173 120.897C76.3498 118.47 77.207 111.379 78.8684 108.173C87.6303 91.2701 109.507 97.8839 112.438 116.57C114.481 117.901 117.37 119.074 119.595 120.147C121.885 121.252 123.9 123.927 126.261 124.884C128.367 125.737 131.838 125.133 133.96 125.877C143.721 129.299 151.989 133.617 158.471 142.366C159.837 144.212 161.376 146.48 162.619 148.345C169.027 155.717 173.477 163.98 177.576 172.845C189.045 198.866 192.164 227.677 194.963 255.713C194.899 260.619 198.156 274.221 193.339 276.573C193.627 276.871 193.523 277.47 192.988 277.465C180.774 277.342 168.588 278.434 156.564 280.558C150.762 281.583 144.991 282.988 139.082 283.219C126.814 283.135 114.59 281.08 102.339 283.024C87.6108 283.024 69.7115 282.595 53.3265 281.966C38.0132 281.378 22.6178 282.706 7.49413 280.104C6.29701 279.914 5.7124 278.455 5.96333 277.409C7.7377 270.948 8.60875 264.297 9.60439 257.683C9.40608 253.441 9.7608 249.013 11.331 245.061C15.4335 218.388 20.6942 191.888 27.1713 165.688Z" fill="#FFDBB4"/>
<path fill-rule="evenodd" clip-rule="evenodd" d="M69.1521 121.938C68.7639 121.832 69.8233 120.067 69.1521 120.289C64.965 121.673 61.9449 129.23 58.8293 130.991C42.621 137.21 30.5695 149.696 27.1713 165.786C20.6942 191.986 15.4335 218.486 11.331 245.159C9.76079 249.11 9.40607 253.539 9.60435 257.781L9.44803 258.826C8.51453 265.094 7.6443 271.386 5.96332 277.507C5.7124 278.553 6.297 280.012 7.49411 280.202C22.4459 282.775 37.6633 281.505 52.8044 282.045L55.9603 282.163C71.6117 282.738 88.3963 283.122 102.339 283.122C114.59 281.178 126.814 283.233 139.082 283.317C144.991 283.086 150.762 281.681 156.564 280.656C168.588 278.532 180.774 277.44 192.988 277.563C193.523 277.568 193.627 276.969 193.339 276.671C198.156 274.319 194.899 260.716 194.963 255.811L194.71 253.286C191.969 226.049 188.701 198.183 177.576 172.943L177.243 172.225C173.235 163.632 168.854 155.615 162.619 148.442L162.238 147.872C161.07 146.129 159.7 144.125 158.471 142.464C151.989 133.715 143.721 129.397 133.96 125.974C131.837 125.23 128.367 125.835 126.261 124.981C124.053 124.087 122.148 121.688 120.036 120.478L120.036 129.506L89.4837 159.586L72.1553 133.03L70.3931 122.154C69.9685 122.127 69.5533 122.047 69.1521 121.938Z" fill="#8FA7DF"/>
<path fill-rule="evenodd" clip-rule="evenodd" d="M32.1133 200.749C32.4365 202.317 32.8894 203.886 33.4916 205.371C34.0718 206.805 34.9458 208.089 35.5478 209.506C35.6286 209.697 35.7608 209.841 35.9201 209.951L35.8705 210.336L35.8246 210.722C35.5244 213.322 35.1867 215.916 34.8942 218.516L34.7521 219.817C34.1771 225.246 33.2688 230.648 32.5638 236.062C31.8734 241.365 31.1706 246.667 30.4193 251.961C29.6432 257.42 28.8525 262.871 27.9296 268.308C27.5399 270.604 27.1333 272.898 26.7096 275.19L26.3824 276.945C23.0138 277.755 22.0933 282.447 25.5231 284.18C27.0798 284.963 29.0799 284.774 30.363 283.544C31.6963 282.261 31.7516 279.949 32.061 278.212L32.3591 276.598C34.5896 264.461 36.5255 252.185 37.4306 239.877C37.6631 236.699 37.859 233.518 37.9863 230.335C38.1073 227.341 38.0495 224.347 38.0957 221.352L38.1111 220.536C38.1819 217.343 38.1234 214.155 38.0402 210.962C38.0304 210.573 38.0132 210.184 37.9936 209.792C38.106 209.66 38.187 209.503 38.2211 209.352L38.2654 209.151C38.3755 208.635 38.2507 208.03 37.8539 207.661C37.6827 205.486 37.4575 203.313 37.3963 201.14C37.3914 200.962 37.1344 200.967 37.1194 201.14C36.975 202.99 36.6864 204.845 36.3975 206.697C34.5394 205.204 33.166 202.743 32.3557 200.683C32.297 200.534 32.0788 200.588 32.1133 200.749ZM76.0761 114.277C75.7676 115.686 75.1581 116.951 74.3404 118.128C73.9509 118.691 73.508 119.215 72.9768 119.653C72.5212 120.027 72.0022 120.271 71.5177 120.597C70.8127 120.487 70.0758 120.754 69.5813 121.272L69.6594 120.514C69.6841 120.269 69.2775 120.22 69.231 120.457C67.0892 131.253 65.1359 142.055 63.4451 152.928L62.704 157.73L62.0067 162.238C60.8488 169.75 59.7288 177.259 58.8854 184.826C57.7617 194.923 56.817 205.048 56.1266 215.187C55.4338 225.397 55.0076 235.615 54.7041 245.845C54.6284 248.423 54.5474 251 54.4693 253.578L53.9464 250.495C53.4245 247.412 52.9128 244.325 52.4741 241.228C50.9 230.142 49.6414 218.977 49.0272 207.796C48.4639 197.563 48.6524 187.128 51.2572 177.16C51.9135 174.652 52.7165 172.183 53.6857 169.778C54.626 167.439 55.9085 165.271 56.9198 162.967C58.0949 160.285 58.4474 157.755 57.8425 154.868C57.3137 152.353 56.3859 149.987 56.2197 147.398C55.9085 142.593 57.4731 137.939 59.6835 133.733C60.2664 132.625 60.8808 131.531 61.5222 130.447C63.4633 127.171 65.6521 124.015 67.9237 120.989C68.0461 120.827 67.7869 120.648 67.6544 120.781C65.5836 122.826 63.3191 124.837 61.4559 127.071C60.5503 128.157 59.6666 129.266 58.8293 130.404C49.6439 131.938 41.7513 137.655 36.3559 145.206C30.2333 153.775 27.1364 164.087 24.8448 174.244C22.2963 185.531 20.1469 196.92 17.858 208.263C15.4884 220 13.131 231.737 10.7465 243.471C9.56165 249.297 8.37653 255.123 7.19434 260.951C6.59456 263.901 5.96516 266.845 5.30688 269.786C4.9688 271.293 4.60649 272.798 4.29314 274.31C3.94086 276.015 4.26889 277.106 5.42415 278.359C5.85036 278.824 6.52357 278.817 7.05237 278.569L7.21767 278.492L7.37743 278.415C8.03174 278.093 8.54472 277.76 8.95183 277.045C9.40007 276.26 9.47107 275.389 9.62505 274.515C9.90927 272.907 10.1906 271.3 10.4745 269.69C10.8988 267.283 11.3602 264.882 11.8298 262.482L14.1858 250.487C14.814 247.289 15.4432 244.091 16.076 240.895C18.3356 229.464 20.5976 218.035 22.8594 206.607C25.0311 195.633 26.9528 184.584 29.4252 173.673L29.5657 173.059L29.7087 172.445C31.9194 163.04 35.0083 153.942 40.6131 145.972C44.9267 139.843 50.9169 134.37 57.9725 131.6C57.4753 132.314 56.9979 133.044 56.5426 133.787C53.6832 138.456 51.5952 143.997 52.0849 149.556C52.3245 152.272 53.3576 154.942 53.2599 157.68C53.1694 160.112 51.6636 162.248 50.6231 164.364C48.261 169.16 46.552 174.256 45.4503 179.484C43.2397 189.983 43.247 200.786 44.0086 211.443C44.8361 223.029 46.4075 234.612 48.1971 246.084C49.1151 251.968 50.3367 257.804 51.2721 263.679C51.7345 266.575 52.3639 269.465 52.9148 272.347L53.1773 273.724C53.3242 274.489 53.4767 275.25 53.6529 276.004L53.7616 276.455V276.536C53.7664 277.092 53.9185 277.552 54.1633 277.919C54.4984 278.992 54.9146 280.04 55.4679 281.046C55.7518 281.559 56.1634 281.848 56.6114 281.953C57.0618 282.983 58.0827 283.776 59.3016 283.771L75.3343 283.71C84.6468 283.673 93.9593 283.612 103.272 283.56C105.622 283.548 107.969 283.504 110.317 283.443C112.518 283.382 114.628 283.118 116.805 282.844C119.263 282.536 120.594 280.796 120.227 278.342C120.146 277.801 120.058 277.263 119.975 276.725C120.465 276.886 121.047 276.81 121.441 276.426L121.811 276.065C122.323 275.558 122.781 275.061 123.106 274.385C123.441 273.691 123.713 272.957 124.01 272.247C124.649 270.72 125.27 269.189 125.875 267.65C127.087 264.572 128.298 261.482 129.425 258.372C131.655 252.213 133.628 245.962 135.344 239.64C138.404 228.36 140.617 216.863 142.013 205.263L142.346 202.499L142.443 201.682C142.973 197.186 143.418 192.62 143.207 188.134C143.077 185.325 142.642 182.494 141.591 179.871C140.622 177.451 139.126 175.382 137.704 173.219L137.541 172.969L137.378 172.713C136.134 170.749 135.144 168.695 135.094 166.309C135.044 163.888 135.75 161.532 136.539 159.265L136.736 158.706L136.868 158.336C138.546 153.652 140.457 149.034 139.827 143.936C138.896 136.43 134.343 130.379 128.614 125.713C133.709 126.721 138.752 128.713 143.202 131.238C148.459 134.223 153.191 138.162 157.272 142.608C164.983 151.01 170.489 161.09 174.996 171.499C179.713 182.391 183.212 193.805 185.848 205.369C188.499 216.998 190.274 228.813 191.486 240.675C192.091 246.579 192.566 252.497 192.96 258.418C193.16 261.452 193.312 264.491 193.547 267.52C193.782 270.547 193.888 273.619 194.627 276.566C194.972 277.938 197.3 278.078 197.55 276.566C198.103 273.189 197.949 269.697 197.794 266.277L197.78 265.966C197.628 262.561 197.43 259.157 197.195 255.754C196.715 248.798 196.074 241.852 195.237 234.927C192.301 210.622 186.888 186.443 176.271 164.256C171.272 153.806 164.856 143.652 155.93 136.107C151.68 132.517 146.889 129.652 141.726 127.578C137.109 125.72 132.418 124.842 127.513 124.845C125.052 122.961 122.411 121.319 119.772 119.917C119.613 119.831 119.446 120.037 119.578 120.169C119.647 120.235 119.713 120.303 119.781 120.367C119.483 120.387 119.175 120.526 118.898 120.817C117.928 121.832 117.111 123.103 116.379 124.421C115.265 125.811 114.203 127.247 113.091 128.622C111.311 130.824 109.49 132.994 107.646 135.147C104.55 138.766 101.353 142.316 98.0192 145.723L97.4623 146.29C95.7342 148.039 93.9836 150.134 91.9397 151.518L91.8305 151.591C90.9682 152.152 90.3567 152.254 89.6213 151.416C88.9528 150.653 88.3963 149.767 87.8243 148.925L87.692 148.732C84.7714 144.492 82.0639 140.095 79.6133 135.569C78.4963 133.509 77.4338 131.419 76.4256 129.306L76.1248 128.671C75.5764 127.507 74.9816 126.364 74.5289 125.165C74.4236 124.884 74.3208 124.602 74.2204 124.323C75.7627 123.313 76.9571 121.126 77.3905 119.413C77.8409 117.634 77.6132 115.809 76.8105 114.182C76.6587 113.876 76.1495 113.952 76.0761 114.277ZM152.16 186.56C152.373 193.323 152.503 200.093 152.821 206.851L152.931 209.158C152.434 209.711 152.143 210.35 152.375 211.226C152.466 211.561 152.733 211.865 153.066 211.977L153.17 214.122C153.642 223.773 154.196 233.404 155.208 243.031C156.474 255.079 157.938 267.106 159.399 279.132C159.607 280.835 160.792 282.185 162.635 281.936C164.501 281.684 165.257 280.062 165.012 278.371C164.05 271.738 163.125 265.1 162.314 258.445L161.392 250.863C160.234 241.385 159.05 231.909 157.685 222.461C157.115 218.512 156.522 214.566 155.928 210.619L156.136 210.35C156.985 209.247 157.864 208.168 158.733 207.081C160.403 204.987 162.05 202.909 163.58 200.717C163.656 200.607 163.502 200.446 163.392 200.529C161.247 202.112 159.218 203.805 157.176 205.525L155.389 207.037C154.361 200.218 153.342 193.397 152.434 186.56C152.412 186.389 152.155 186.377 152.16 186.56ZM121.312 121.84C122.602 123.056 123.921 124.245 125.221 125.454L125.698 125.899L126.172 126.346C128.457 128.511 130.646 130.765 132.47 133.354C135.819 138.108 137.814 143.904 136.421 149.708C135.266 154.516 132.614 158.874 131.902 163.801C131.545 166.27 131.718 168.751 132.649 171.082C133.599 173.461 135.117 175.499 136.48 177.645C139.442 182.308 139.846 187.427 139.552 192.829C139.244 198.471 138.595 204.116 137.794 209.707C136.174 221.035 133.731 232.246 130.497 243.224C128.879 248.722 126.967 254.102 125.064 259.505C124.117 262.194 123.013 264.819 121.875 267.432C121.275 268.807 120.66 270.174 120.036 271.54C120.266 269.612 120.266 267.633 120.379 265.717C120.541 262.972 120.746 260.231 120.935 257.489C121.319 251.922 121.662 246.351 121.968 240.78C123.052 220.913 123.85 201.028 123.792 181.129C123.762 171.178 123.559 161.227 123.13 151.286C122.93 146.605 122.541 141.928 122.189 137.253L122.115 136.251C121.804 132.055 121.431 127.849 120.793 123.69C120.982 123.263 121.146 122.831 121.268 122.388L121.312 122.222L121.28 122.227C121.309 122.097 121.319 121.967 121.312 121.84ZM110.153 104.742C110.126 104.627 109.962 104.637 109.933 104.742C109.206 107.189 109.463 109.88 110.089 112.342C110.427 113.675 110.907 114.97 111.487 116.217L111.69 116.654C112.187 117.717 112.747 118.812 113.715 119.474C114.119 119.75 114.841 119.768 115.245 119.474L115.451 119.318C115.485 119.291 115.519 119.264 115.551 119.237C115.928 118.921 116.114 118.224 115.941 117.764C115.493 116.577 114.476 115.706 113.774 114.649C113.152 113.71 112.601 112.719 112.144 111.689C111.157 109.46 110.714 107.094 110.153 104.742Z" fill="black"/>
<path fill-rule="evenodd" clip-rule="evenodd" d="M114.536 12.1582L112.426 14.6714C113.594 15.496 114.697 16.3245 115.734 17.1571L115.735 17.1546C110.93 14.0144 105.608 12.1582 99.8585 12.1582C88.7851 12.1582 66.2927 21.685 61.2081 28.5566C58.6848 31.9668 53.9957 42.4358 51.5634 53.8174C49.609 62.9623 46.7023 88.7981 49.609 98.5061C53.3292 110.931 65.5685 122.414 78.1887 122.414C90.8089 122.414 110.402 113.289 124.347 93.2912C124.984 92.3768 132.307 91.3168 137.53 87.8848L136.159 103.017L135.117 111.82L135.347 112.446C139.088 122.58 142.052 127.867 144.24 128.307C146.473 128.755 151.02 125.09 157.882 117.309L158.758 113.624C160.985 104.222 162.099 99.1756 162.099 98.4842L162.097 98.3582C162.064 96.7671 161.517 87.761 161.506 85.3374L161.506 49.0124C154.126 24.4429 147.085 12.1582 140.38 12.1582H114.536Z" fill="#FFDBB4"/>
<path fill-rule="evenodd" clip-rule="evenodd" d="M132.02 3.79076C129.851 2.94909 127.337 3.10813 125.278 4.37553C121.234 4.20181 117.213 6.57024 115.105 10.0275C115.061 10.0764 115.015 10.1253 114.973 10.1743L114.527 10.6958C114.103 11.1938 113.657 11.7427 113.304 12.3095C115.035 12.3491 116.478 13.056 117.485 14.4837C118.203 15.5023 116.557 16.4704 115.823 15.5069L115.797 15.4716C115.193 14.6146 114.28 14.2825 113.264 14.2652C112.972 14.2603 112.751 14.1485 112.595 13.9836C112.532 14.2109 112.477 14.4406 112.426 14.6713C107.31 12.6785 101.794 12.1507 96.3015 12.6234C96.5424 13.0139 96.7437 13.4323 96.8986 13.872C97.0742 14.3704 96.6995 14.9427 96.216 15.0758C95.6933 15.2196 95.2207 14.9128 95.0315 14.4386L95.0141 14.3922C94.8031 13.7932 94.4584 13.2791 93.9957 12.8806C91.4098 13.2317 88.8423 13.79 86.3376 14.5098C83.3272 15.3757 80.3451 16.4325 77.4288 17.6424C77.9227 17.8364 78.3495 18.1643 78.6483 18.7116C79.2447 19.8041 77.6049 20.7827 76.9827 19.7382L76.9607 19.6996C76.8997 19.5876 76.8456 19.5202 76.806 19.4819L76.7919 19.4689L76.7059 19.4292L76.5457 19.3832L76.4841 19.3681C76.4298 19.3558 76.4073 19.3566 76.2645 19.3487C76.0744 19.338 75.8841 19.3389 75.6938 19.3387C75.2463 19.3384 74.9607 19.0886 74.8314 18.7691C73.3923 19.4197 71.9715 20.1048 70.5759 20.8224L70.2441 20.9944C65.9362 23.2487 61.855 26.2092 59.4875 30.5652C59.3309 30.8564 59.2823 31.1744 59.3211 31.4778C58.8157 32.0846 58.3271 32.711 57.858 33.3471C56.4265 35.2947 55.3785 37.509 54.3867 39.7037C52.3908 44.1176 51.0472 48.6514 49.9992 53.3784C48.9851 57.9342 48.167 62.5389 47.407 67.1437C46.5644 72.2598 45.8633 77.4199 45.7165 82.6094C45.4575 91.8604 47.2631 101.165 52.4494 108.953C57.0761 115.902 64.0433 121.419 72.3055 123.186C80.7091 124.982 89.6013 123.23 96.2239 117.622C97.2917 116.719 97.1448 114.896 96.2239 113.971C95.1807 112.929 93.6419 113.073 92.5793 113.971C86.3425 119.254 77.2646 120.069 69.7499 117.377C62.8023 114.886 57.3597 109.142 54.0202 102.69C49.9454 94.8209 49.2587 85.7828 49.8844 77.0773C50.2261 72.2964 50.9372 67.5547 51.6701 62.8203L52.1125 59.9705C52.5951 56.8837 53.1021 53.8011 53.7635 50.7458L53.9183 50.0339C54.7265 46.3494 55.6732 42.5704 57.1371 39.1067C57.9045 37.2888 58.8276 35.5369 59.773 33.8071C59.9563 33.4719 60.1446 33.1318 60.3376 32.7893C60.5966 32.8798 60.8922 32.8945 61.2024 32.7966C63.8725 31.9647 66.6159 31.4069 69.4079 31.2209C70.68 31.1358 71.9539 31.1226 73.2265 31.1722C75.4048 31.0453 77.644 31.2371 79.719 31.906C79.922 31.7316 80.1277 31.5608 80.3336 31.39C80.3891 31.3856 80.4445 31.3797 80.5002 31.3687C81.0296 31.2645 81.4019 30.8877 81.6262 30.4118C81.6379 30.3866 81.6484 30.3614 81.6584 30.3362C81.924 30.1329 82.1917 29.9327 82.4619 29.7353C83.1205 29.9063 83.6975 29.3575 83.8529 28.7561C83.9995 28.657 84.1485 28.5611 84.2965 28.464C84.4126 28.4924 84.5279 28.5158 84.6403 28.5242C85.1252 28.5591 85.5935 28.4848 86.0232 28.2531C86.5672 27.9597 86.9149 27.4865 87.1474 26.949C87.9702 26.9996 88.8028 26.7322 89.5383 26.2487C90.1354 25.8565 90.5927 25.315 91.0473 24.7746C96.5874 22.2997 102.61 20.8385 108.646 20.4642C109.241 20.5787 109.831 20.715 110.414 20.8735C110.552 20.9112 110.748 20.9851 110.974 21.0737C109.628 20.9107 108.265 20.8946 106.882 21.094C100.322 22.044 95.2127 26.9634 90.8152 31.607C89.7692 31.3954 88.7119 32.7521 89.68 33.6505L97.2279 40.6557C97.0427 41.4392 97.9398 42.2113 98.7257 42.0232C100.043 41.7061 101.363 41.3978 102.684 41.0947C104.062 41.7624 105.794 41.6481 107.044 40.6802C107.102 40.6352 107.228 40.5632 107.338 40.4918C107.441 40.5767 107.579 40.6618 107.634 40.6981C108.078 40.9926 108.619 41.0793 109.139 40.9966C109.673 40.9116 110.155 40.6403 110.57 40.3024C110.835 40.0872 111.451 39.1891 111.794 39.123L111.828 39.1192C111.599 39.1258 112.334 39.8106 112.532 39.9523C112.993 40.2819 113.503 40.4551 114.077 40.392C115.077 40.2818 115.937 39.3689 116.426 38.5259L116.463 38.4613L116.478 38.4211L116.491 38.4645C116.494 38.4722 116.497 38.4804 116.5 38.4896C116.573 38.6881 116.803 38.9137 116.96 39.0524C117.405 39.447 117.957 39.6205 118.546 39.5175C119.045 39.4306 119.464 39.1288 119.801 38.7636L119.854 38.7054C119.953 38.5927 120.61 37.7086 120.507 37.4968L120.495 37.4789L120.527 37.472C120.927 37.5704 121.263 37.4718 121.508 37.2655C122.88 36.9646 124.233 36.614 125.544 36.1682C125.646 36.4569 125.747 36.7456 125.844 37.0368C125.129 37.4796 124.467 38.1109 123.858 38.5611C122.705 39.4125 121.552 40.264 120.402 41.1179L115.843 44.4861L115.321 44.3459C114.655 44.1667 114.084 44.5552 113.839 45.1489L113.819 45.2003C113.722 45.4603 113.605 45.7009 113.468 45.9311C112.328 45.8856 111.363 46.5863 111.051 47.5914C110.77 47.5851 110.486 47.5958 110.195 47.6279C109.399 47.7155 108.862 48.3076 109.006 49.1206L109.017 49.1764L109.036 49.2669C108.575 49.4632 108.24 49.8422 108.166 50.4152C108.042 50.6014 107.943 50.804 107.879 51.0296C107.546 52.2001 108.194 53.6471 108.539 54.7684L108.565 54.8562C108.787 55.5932 109.016 56.3266 109.248 57.0597L109.826 58.8798C111.427 63.9523 112.989 69.3006 111.693 74.6184C111.416 75.7439 112.853 76.2528 113.476 75.372C114.986 73.2394 116.618 71.2299 118.331 69.3009L118.414 69.2877C119.614 69.0462 120.08 68.1975 120.63 67.3323C120.955 67.428 121.304 67.4505 121.641 67.3854C122.129 67.2912 122.566 67.012 122.911 66.6595C123.204 66.3605 123.472 65.5937 123.817 65.4035C124.25 65.166 125.119 65.5056 125.635 65.4292C126.055 65.3673 126.447 65.223 126.828 65.0417C127.527 65.9961 127.99 67.1182 128.104 68.3279C128.148 68.7878 128.285 69.1769 128.483 69.4998C127.755 69.4729 127.024 69.5243 126.304 69.6589C123.636 70.1556 121.723 71.8047 120.648 74.2612C120.602 74.3688 120.741 74.4569 120.805 74.3541C122.4 71.8952 125.871 71.7704 128.392 72.6365C131.07 73.5565 132.572 75.9176 133.107 78.6114C133.693 81.5646 132.941 84.7478 131.336 87.263C130.591 88.4326 129.575 89.4993 128.224 89.93C126.619 90.4413 125.136 89.5262 123.492 89.9985C122.373 90.319 121.879 91.4029 122.082 92.4868C122.163 92.9125 122.312 93.2844 122.512 93.6074C121.921 94.7818 121.374 95.9905 120.678 97.1013C119.603 98.8164 118.303 100.236 116.886 101.667C115.423 103.145 113.933 104.593 112.367 105.963C110.867 107.277 109.147 108.212 107.574 109.416C106.469 110.26 105.922 111.444 106.467 112.799C106.917 113.92 108.431 114.874 109.658 114.368C112.005 113.399 114.06 111.75 115.931 110.052C117.665 108.476 119.175 106.592 120.316 104.547C121.392 102.618 122.185 100.428 122.854 98.3188L122.937 98.0555C123.253 97.0524 123.585 95.9244 123.8 94.7867C125.087 95.4913 126.834 95.5941 128.211 95.4033C130.437 95.0974 132.467 93.9744 134.001 92.3375C134.716 91.5759 135.348 90.707 135.894 89.7653C135.845 90.3386 135.815 90.8932 135.783 91.398C134.508 92.797 133.996 94.816 134.449 96.6582C133.382 97.7582 133.083 99.4095 133.64 100.815C132.472 101.976 132.516 103.822 133.021 105.499C131.64 107.044 131.509 109.452 132.587 111.196L132.62 111.321C131.531 113.146 131.777 115.503 133.141 117.114C132.209 118.924 132.353 121.358 134.681 122.06C135.53 122.316 136.352 122.097 136.967 121.621C136.405 124.42 136.154 127.262 136.903 130.073C137.202 131.189 138.291 132.004 139.437 132.004C140.395 132.004 141.091 131.522 141.572 130.812C141.516 132.224 141.601 133.643 141.902 135.074C142.083 135.939 142.883 136.613 143.733 136.822C143.427 137.168 143.305 137.669 143.598 138.19C144.845 140.399 147.855 139.483 148.059 137.366C148.909 136.731 149.305 135.687 149.468 134.559C149.707 132.915 149.793 131.297 150.063 129.673L150.167 129.77L150.22 129.816L150.237 129.934C150.392 130.736 150.844 131.298 151.43 131.634C151.303 133.034 151.539 134.459 152.426 135.522C153.016 136.231 154.023 136.51 154.885 136.356C154.939 136.359 154.995 136.359 155.053 136.351C157.006 136.091 158.136 134.235 157.622 132.532C158.409 131.566 158.74 130.341 158.507 129.131C160.03 128.121 159.998 125.904 159.471 124.123C161.067 122.862 161.667 120.504 160.865 118.63C162.304 116.841 162.504 114.348 161.527 112.311C163.109 111.009 163.1 108.496 161.53 107.164C162.366 105.503 162.87 103.512 162.035 101.991C162.624 101.34 162.948 100.412 162.879 99.5147C162.779 98.1974 161.909 97.2872 160.83 96.6807L160.755 96.2687C160.501 96.3002 160.231 96.2293 159.993 96.0003C159.757 95.7735 159.515 95.5907 159.264 95.44C158.98 95.4363 158.735 95.3096 158.563 95.1146C158.093 94.9545 157.587 94.8838 157.025 94.8775C155.814 94.8643 155.771 93.049 156.899 92.9313C157.077 92.7515 157.322 92.6382 157.588 92.6382L157.796 92.6391C158.283 92.6437 158.775 92.6738 159.227 92.8677C159.521 92.9935 159.747 93.1831 159.913 93.4151C159.944 93.7659 160.135 94.1158 160.547 94.4048C161.024 94.7385 161.676 94.7774 162.186 94.4755C162.9 94.0527 162.907 93.3928 162.825 92.6754C162.644 91.1061 163.545 89.6293 163.331 88.0237C163.236 87.3139 163 86.701 162.615 86.206C163.426 84.9898 163.57 83.4197 162.945 82.0845C164.246 80.6823 164.471 78.5209 163.641 76.8334C163.629 76.7925 163.62 76.7507 163.607 76.7103C163.513 76.4236 163.384 76.165 163.242 75.9176C163.97 74.6536 163.965 73.1026 163.224 71.844C164.346 70.5346 164.382 68.4507 163.384 67.0399C163.378 66.923 163.366 66.806 163.356 66.6891C163.814 65.4987 163.704 64.1455 163.123 63.0386C163.33 62.5602 163.49 62.0452 163.592 61.4966C163.854 60.0824 163.719 58.7074 163.328 57.3274C163.265 57.1097 163.194 56.8919 163.119 56.6741C163.106 55.729 163.07 54.788 163.023 53.8487C163.208 53.0536 163.238 52.1798 163.242 51.3686L163.244 50.8426C163.253 49.5039 163.346 47.5439 162.501 46.406C163.043 45.1768 162.82 43.628 161.915 42.6537C162.55 41.5588 162.684 40.2143 162.045 38.9995C161.942 38.804 161.823 38.622 161.693 38.4498C161.746 37.3372 161.512 36.19 160.92 35.0843C160.535 34.3645 159.961 33.7413 159.278 33.2427C159.29 33.0951 159.297 32.9478 159.294 32.8027C159.282 32.1553 159.139 31.5052 158.898 30.8987C159.331 30.1583 159.532 29.3237 159.278 28.4243C158.995 27.4065 158.25 26.5306 157.319 26.0363C157.244 25.0767 157.094 24.1228 156.88 23.1815C157.452 21.906 156.997 20.2227 155.704 19.4713C155.873 18.452 155.721 17.395 154.98 16.5988C154.7 16.2972 154.369 16.0684 154.013 15.9167C154.184 14.8918 153.991 13.8255 153.283 12.9909C152.705 12.3095 151.849 11.8955 150.977 11.8346C150.641 10.0519 148.941 8.71895 147.147 8.82513C146.923 8.04023 146.387 7.35588 145.556 7.00893C145.343 6.92012 145.128 6.86164 144.914 6.8291C143.455 5.3552 141.283 4.3562 139.402 3.84459C137.516 3.33346 135.604 3.28398 133.985 3.87825L133.867 3.92289L133.735 3.90576C133.163 3.84214 132.592 3.80544 132.02 3.79076ZM146.353 124.594C146.857 124.437 147.418 124.78 147.555 125.277C147.699 125.803 147.378 126.324 146.872 126.481C146.242 126.678 145.581 126.727 144.924 126.728C144.396 126.728 143.947 126.278 143.947 125.749C143.947 125.218 144.394 124.771 144.924 124.771C145.458 124.77 145.852 124.75 146.353 124.594ZM150.834 114.201C151.587 114.201 152.233 114.381 152.791 114.91C153.164 115.263 153.173 115.943 152.791 116.294C152.406 116.648 151.847 116.669 151.451 116.332L151.375 116.263C151.366 116.255 151.359 116.248 151.353 116.243C151.321 116.222 151.289 116.201 151.256 116.184L151.319 116.225C151.368 116.261 151.255 116.203 151.192 116.176L151.172 116.168L151.166 116.167L151.115 116.163C151.022 116.158 150.928 116.158 150.834 116.158C150.323 116.158 149.833 115.708 149.857 115.179C149.881 114.649 150.286 114.2 150.834 114.201ZM136.621 107.991C135.564 107.342 136.508 105.68 137.569 106.279L137.608 106.301C138.151 106.635 138.82 106.59 139.436 106.59C140.694 106.591 140.696 108.549 139.436 108.548L139.228 108.547C138.325 108.54 137.412 108.477 136.621 107.991ZM144.946 100.847C145.745 100.697 146.64 100.562 147.481 100.654L147.62 100.671H147.879C148.104 100.671 148.322 100.762 148.496 100.904C148.773 101.019 149.035 101.173 149.274 101.381C150.226 102.207 148.838 103.587 147.892 102.765C147.839 102.719 147.778 102.681 147.71 102.651L147.658 102.629H146.613C146.518 102.629 146.425 102.609 146.335 102.58C145.996 102.627 145.68 102.694 145.465 102.735C144.236 102.966 143.709 101.08 144.946 100.847ZM145.838 82.0613C147.37 81.3498 149.066 81.3549 150.483 82.3429C151.496 83.0494 150.555 84.7156 149.533 84.0576L149.497 84.0331C149.37 83.9445 149.239 83.8704 149.107 83.8031C148.388 84.0113 147.664 84.0211 146.969 83.7651L146.878 83.7302L146.824 83.7513C145.691 84.2778 144.697 82.5913 145.838 82.0613ZM129.159 78.9944C130.706 78.8207 130.718 76.3725 129.159 76.5477C125.865 76.9176 122.877 78.384 120.688 80.9021C119.67 82.0733 121.347 83.7867 122.384 82.6677L122.416 82.6322C124.156 80.6298 126.505 79.2924 129.159 78.9944ZM146.493 66.4251C146.837 66.3874 147.18 66.3685 147.518 66.3849C148.33 66.4241 149.318 66.9663 148.962 67.9459C148.677 68.7309 147.74 68.7619 147.278 68.3433C147.086 68.3479 146.894 68.3607 146.703 68.3802C146.192 68.4328 145.687 68.5302 145.184 68.6295C143.955 68.8715 143.429 66.9854 144.664 66.7419L145.21 66.6337C145.395 66.5976 145.58 66.5623 145.767 66.53C145.878 66.4744 145.998 66.437 146.126 66.4275L146.191 66.4251H146.493ZM156.203 51.2395L156.317 51.2239C157.968 51.0125 160.617 51.207 160.817 53.3109C160.928 54.476 159.247 54.5492 158.915 53.5529C157.697 53.3329 156.468 53.2908 155.258 53.4244C154.796 52.9546 154.792 52.0516 155.561 51.8262C155.669 51.5341 155.896 51.2838 156.203 51.2395ZM118.483 47.6861C118.864 47.3355 119.489 47.289 119.865 47.6861C120.081 47.9146 120.261 48.1686 120.404 48.448L120.499 48.6367C120.516 48.668 120.532 48.6992 120.549 48.7299C120.581 48.7869 120.617 48.8412 120.652 48.8965L120.676 48.9196C120.685 48.9291 120.696 48.9406 120.709 48.9545C121.061 49.3267 121.105 49.9743 120.709 50.3386C120.328 50.6892 119.703 50.7357 119.327 50.3386C119.111 50.1101 118.931 49.8564 118.787 49.5767L118.692 49.3882C118.676 49.3569 118.66 49.3258 118.643 49.2951C118.611 49.2378 118.575 49.1835 118.54 49.1282L118.501 49.0893C118.495 49.0836 118.489 49.0772 118.483 49.0702C118.131 48.6983 118.087 48.0504 118.483 47.6861ZM138.521 45.1374C139.898 44.1602 141.535 44.1147 142.801 45.2903C143.714 46.1389 142.372 47.4985 141.451 46.7034L141.419 46.6744C141.385 46.6431 141.351 46.6157 141.318 46.5895C141.153 46.7304 140.943 46.8197 140.703 46.82C140.64 46.8202 140.578 46.82 140.515 46.8213L140.421 46.8246L140.371 46.8288L140.364 46.83L140.321 46.8487C140.24 46.885 140.129 46.9411 140.281 46.8457C140.247 46.8635 140.216 46.8846 140.183 46.9051L140.127 46.9563C139.759 47.3052 139.122 47.3512 138.756 46.9653C138.108 46.7461 137.764 45.6739 138.521 45.1374ZM125.06 41.931L125.035 41.9231C123.828 41.5779 124.341 39.6888 125.555 40.0355C126.842 40.4037 127.457 41.6038 127.715 42.8331C127.823 43.3501 127.563 43.891 127.032 44.0371C126.547 44.1704 125.939 43.8732 125.83 43.3535C125.753 42.988 125.665 42.678 125.526 42.3903L125.441 42.226C125.402 42.1511 125.388 42.1387 125.255 42.0222C125.233 42.0026 125.131 41.9552 125.06 41.931ZM145.509 32.0729L145.697 32.0297C146.874 31.7717 148.435 31.637 149.145 32.8047C149.792 33.8685 148.159 34.8369 147.487 33.8313C147.476 33.831 147.465 33.8311 147.451 33.8322L147.429 33.8348L147.127 33.8103C146.752 33.8076 146.392 33.8742 146.028 33.9605C144.805 34.2505 144.283 32.3635 145.509 32.0729ZM103.286 24.5482C102.396 23.6564 103.777 22.2718 104.668 23.1644C105.372 23.8698 106.051 24.58 106.509 25.4763C106.749 25.9465 106.632 26.5382 106.159 26.8154C105.722 27.0711 105.063 26.9365 104.822 26.4643C104.425 25.6874 103.924 25.1878 103.286 24.5482ZM114.522 22.2072C115.402 22.7289 115.971 23.5881 116.317 24.5827C116.49 25.0819 116.119 25.6532 115.634 25.7865C115.113 25.9299 114.637 25.6242 114.45 25.1494L114.432 25.1029C114.34 24.837 114.192 24.5228 114.009 24.2857C113.852 24.0834 113.609 23.8808 113.426 23.8135C112.986 23.6515 112.674 23.2517 112.714 22.7849C113.439 23.0357 114.111 22.734 114.522 22.2072ZM140.856 17.9499C141.744 17.1249 142.934 17.0155 144.01 17.5149C144.489 17.7371 144.609 18.4288 144.361 18.854C144.073 19.346 143.504 19.4282 143.024 19.2051C143.147 19.2623 142.924 19.1867 142.828 19.1591C142.816 19.1648 142.655 19.1575 142.599 19.1583L142.532 19.1625C142.531 19.1629 142.548 19.1626 142.581 19.1615C142.534 19.1721 142.488 19.1848 142.442 19.1994L142.384 19.2196C142.413 19.2135 142.281 19.2997 142.245 19.3283L142.238 19.3338C141.317 20.1899 139.932 18.809 140.856 17.9499Z" fill="black"/>
<path fill-rule="evenodd" clip-rule="evenodd" d="M72.3656 97.3077C71.9901 96.6552 71.1254 96.0506 70.3342 96.1433C66.7896 96.5588 66.7958 100.854 68.1645 103.361C69.378 105.584 71.8895 106.89 74.4032 106.699C77.0439 106.499 79.294 104.947 80.2842 102.478C80.9391 100.845 81.2416 97.8296 79.4996 96.7323C79.4673 96.7117 79.4139 96.7168 79.3882 96.7464C78.5529 97.7175 78.5201 99.1755 77.7889 100.257C77.1088 101.262 76.0522 102.093 74.8145 102.221C73.8901 102.317 72.9549 101.984 72.5933 101.154C72.3977 100.706 72.42 100.462 72.4935 100.153L72.5603 99.8849C72.7918 98.945 72.8958 98.2293 72.3656 97.3077ZM71.4181 78.4717C69.5695 79.5947 66.7527 82.2135 68.7414 84.9977C71.0823 87.4526 74.4527 84.6379 76.1136 83.3649C77.6536 82.3783 79.3839 84.9157 77.955 86.0677C65.9536 94.9481 61.0832 78.7654 70.4831 77.1513C71.5181 76.9734 71.9024 78.1243 71.4181 78.4717ZM90.9398 70.7708C89.8051 69.0693 87.215 69.3199 86.59 71.3389C86.2515 72.4326 86.7191 73.4157 86.6948 74.5079C86.6745 75.4305 86.735 76.4586 87.018 77.3522C87.6633 79.3898 89.4969 80.829 91.6661 80.7693C93.8283 80.7098 95.7326 79.3421 96.6382 77.4158C97.5469 75.4822 97.3545 73.481 96.6911 71.5148C96.6592 71.4204 96.5354 71.3746 96.4607 71.4541C95.6765 72.287 95.1024 73.1663 94.5084 74.0991L93.8997 75.055C93.4344 75.7748 92.7583 76.6944 91.8897 76.6366L91.7593 76.6238C91.5179 76.6031 91.5549 76.651 91.3687 76.3221C91.2825 76.1699 91.2982 75.8871 91.2566 75.7075L91.2421 75.6468L91.25 75.6141C91.2684 75.5272 91.2866 75.3633 91.3014 75.0789L91.3046 75.0161C91.3675 73.6858 91.7437 71.9763 90.9398 70.7708ZM62.1769 71.9035C62.3803 69.7274 59.3192 69.2441 58.3016 70.8543C57.7708 71.694 57.6163 72.7488 57.4989 73.7481L57.444 74.2225C57.3236 75.2489 57.2758 76.3166 57.7216 77.274C58.4237 78.7819 59.9506 79.5791 61.5977 79.4528C63.1705 79.3319 64.6056 78.4205 65.3621 77.0369C66.0365 75.8023 66.707 73.3918 65.8879 72.1041C65.8385 72.026 65.7396 72.016 65.6717 72.0762C64.8977 72.763 64.7716 74.0157 64.3114 74.9105C63.8367 75.8334 63.1167 76.7328 62.0256 76.873C60.9817 77.0071 60.5829 76.4372 60.8493 75.4426C61.1927 74.1586 62.0476 73.2851 62.1769 71.9035ZM90.113 57.8333L89.6124 57.6417C87.8972 56.9941 85.5424 56.2456 84.148 57.6395C83.2877 58.4991 83.124 59.7652 83.7379 60.8142C84.4819 62.0847 85.8163 62.1161 87.105 62.3032C88.5707 62.5161 90.0613 62.9208 91.4259 63.4977C92.963 64.1478 94.3895 64.9582 95.7871 65.8632C97.1155 66.7232 98.4391 68.1289 100.029 68.3938C100.094 68.4046 100.168 68.3767 100.185 68.3055C100.546 66.7518 99.5423 65.2229 98.6467 64.0108C97.5632 62.5432 96.2503 61.3387 94.7829 60.2587C93.3667 59.2162 91.7485 58.4629 90.113 57.8333ZM58.9569 63.3572L58.804 63.3304C57.7639 63.1573 56.8214 63.1972 56.0376 64.0205C55.4393 64.6486 55.2087 65.4626 55.4939 66.293C55.757 67.0591 56.3455 67.8374 57.1997 67.9979C60.0833 68.5401 63.2773 68.4505 66.1753 68.0399C67.5012 67.852 68.8391 67.6221 70.1306 67.2595L70.7247 67.0873C71.8029 66.7795 73.0373 66.4579 73.8204 65.6654C74.102 65.3806 73.9397 64.973 73.6028 64.8411C72.2363 64.3063 70.3633 64.5908 68.9062 64.549C67.2111 64.5005 65.5134 64.3735 63.8264 64.1986C62.1778 64.0273 60.5827 63.6552 58.9569 63.3572Z" fill="black"/>
</svg>
